<svg xmlns="http://www.w3.org/2000/svg" viewBox="0 0 37.64 31.55"><defs><style>.cls-1{fill:#7fcdec;}</style></defs><g id="Ebene_2" data-name="Ebene 2"><g id="Ebene_2-2" data-name="Ebene 2"><path class="cls-1" d="M.08,12.61A16.86,16.86,0,0,0,5,26.41a16.26,16.26,0,0,0,11.84,5.14c12.74,0,17.31-8.14,19.64-14.25.49-1.28,1.33-4.06,1.17-4.38-.75-.43-2.38-1.17-4.11-1.95a22.15,22.15,0,0,1-3.62-1.92s-.38,2.21-.6,3.22A15.36,15.36,0,0,1,27,18.19a11.67,11.67,0,0,1-9,5.18c-2.83.21-6.71-1.73-8.51-3.63a10.26,10.26,0,0,1-2.25-7A7.4,7.4,0,0,1,14,5.51a6.12,6.12,0,0,1,6.78,5.34,4.79,4.79,0,0,1-3.29,5.39,4.42,4.42,0,0,1-3.5-.47,3.43,3.43,0,0,1-1.59-2.2,3.83,3.83,0,0,1,.42-2,.18.18,0,0,1,.16-.1c.18,0,.24.15.36.48a3,3,0,0,0,1.46,1.95c1,.66,2.58-.09,3.26-1.23a2.32,2.32,0,0,0,.3-1.73,3.24,3.24,0,0,0-1.74-2.27,3.47,3.47,0,0,0-3-.34,4.81,4.81,0,0,0-2.88,2.29,5.84,5.84,0,0,0-.3,4.63,5.34,5.34,0,0,0,3,3.41,7.67,7.67,0,0,0,8-1,7.73,7.73,0,0,0,3-4.31,10.59,10.59,0,0,0-.16-7.08,10.2,10.2,0,0,0-3.19-3.82,13.48,13.48,0,0,0-3.9-2A13.13,13.13,0,0,0,13.66,0l-.73,0A13.4,13.4,0,0,0,4.57,3.49,13.45,13.45,0,0,0,.08,12.61Z"/></g></g></svg>