<svg xmlns="http://www.w3.org/2000/svg" width="95.255" height="65.869" viewBox="0 0 95.255 65.869">
  <g id="Ebene_2" data-name="Ebene 2" transform="translate(1.109 1)">
    <g id="Ebene_1" data-name="Ebene 1" transform="translate(0)">
      <path id="Pfad_128" data-name="Pfad 128" d="M46.848,69.334C43.42,68.1,33.465,64.976,19.077,64.976A101.216,101.216,0,0,0,8.3,65.56L2.22,13.17a99.762,99.762,0,0,1,10.61-.58c15.351,0,25.779,3.7,27.985,4.56Z" transform="translate(-1.306 -7.409)" fill="#fff" stroke="#d4b702" stroke-width="2"/>
      <path id="Pfad_129" data-name="Pfad 129" d="M11.523,12.236c14.334,0,24.326,3.255,27.224,4.329l5.844,50.385a86.185,86.185,0,0,0-26.8-3.976c-3.321,0-6.7.169-10.058.5l-5.9-50.76c3.231-.313,6.482-.482,9.7-.482m0-1.646A99.875,99.875,0,0,0,0,11.261L6.268,65.293a99.8,99.8,0,0,1,11.523-.671c17.672,0,28.746,4.8,28.746,4.8L40.253,15.393S29.174,10.59,11.523,10.59Z" transform="translate(0 -6.232)" stroke="#d4b702" stroke-width="2"/>
      <path id="Pfad_130" data-name="Pfad 130" d="M121.454,17.15c2.2-.856,12.634-4.56,27.985-4.56a99.815,99.815,0,0,1,10.593.58l-6.079,52.39a101.157,101.157,0,0,0-10.782-.584c-14.384,0-24.339,3.107-27.771,4.358Z" transform="translate(-67.908 -7.409)" fill="#fff" stroke="#d4b702" stroke-width="2"/>
      <path id="Pfad_131" data-name="Pfad 131" d="M148.031,12.236c3.194,0,6.441.161,9.675.482l-5.889,50.76c-3.358-.333-6.733-.5-10.058-.5a86.176,86.176,0,0,0-26.8,3.976l5.86-50.39c2.881-1.074,12.848-4.325,27.224-4.325h0m0-1.646c-17.668,0-28.746,4.8-28.746,4.8L113,69.424s11.075-4.8,28.746-4.8a99.827,99.827,0,0,1,11.523.671l6.264-54.032a99.924,99.924,0,0,0-11.523-.671Z" transform="translate(-66.495 -6.232)" stroke="#d4b702" stroke-width="2"/>
      <path id="Pfad_132" data-name="Pfad 132" d="M56.862,62.954C52.8,60.946,38.981,54.912,19,54.752V2c21.256.173,35.331,7.066,37.862,8.4Z" transform="translate(-11.181 -1.177)" fill="#fff" stroke="#d4b702" stroke-width="2"/>
      <path id="Pfad_133" data-name="Pfad 133" d="M18.646,1.646c19.594.329,32.882,6.383,36.216,8.075V60.452c-5.128-2.4-17.935-7.408-36.216-7.692V1.646M17,0V54.394c24.4,0,39.508,8.741,39.508,8.741V8.741S41.413,0,17,0Z" transform="translate(-10.004)" stroke="#d4b702" stroke-width="2"/>
      <path id="Pfad_134" data-name="Pfad 134" d="M115,10.414c2.539-1.338,16.635-8.231,37.862-8.4V54.758c-19.976.161-33.8,6.173-37.862,8.2Z" transform="translate(-67.672 -1.183)" fill="#fff" stroke="#d4b702" stroke-width="2"/>
      <path id="Pfad_135" data-name="Pfad 135" d="M150.862,1.646V52.76c-18.277.288-31.088,5.288-36.216,7.692V9.733C118,8.042,131.289,1.988,150.862,1.646M152.508,0C128.108,0,113,8.741,113,8.741V63.135s15.108-8.741,39.508-8.741Z" transform="translate(-66.495)" stroke="#d4b702" stroke-width="2"/>
    </g>
  </g>
</svg>
