<svg id="Ebene_2" data-name="Ebene 2" xmlns="http://www.w3.org/2000/svg" width="251.43" height="251.43" viewBox="0 0 251.43 251.43">
  <g id="Ebene_1" data-name="Ebene 1">
    <path id="Pfad_14" data-name="Pfad 14" d="M192.371,173.483c-10.932-.542-17.211-23.685-22.122-35.765-2.036-5.043-5.4-12.527-5.4-23.484,0-12.609,12.609-18.648,21.9-19.209-3.921-24.417-17.791-51.841-66.372-51.841-42.34,0-64.222,28.685-64.222,71.037,0,76.5,98.884,88.551,168.383,89.213a125.189,125.189,0,1,0-65.609,43.582C95.782,239.262,20.262,202.628,20.262,119.965A100.227,100.227,0,0,1,120.375,19.859c64.178,0,83.665,42.447,89.206,75.123,9.551,0,23.326,6,23.326,19.253,0,10.957-3.354,18.459-5.4,23.484-4.886,12.041-11.184,35.222-22.122,35.765Z" fill="#fff"/>
    <path id="Pfad_15" data-name="Pfad 15" d="M289.37,205.217q1.8-9.7-6.38-13.107Q281.194,201.825,289.37,205.217Z" transform="translate(-104.464 -70.997)" fill="#fff"/>
    <path id="Pfad_16" data-name="Pfad 16" d="M343.8,192.11q-8.2,3.4-6.38,13.107Q345.6,201.825,343.8,192.11Z" transform="translate(-124.576 -70.997)" fill="#fff"/>
  </g>
</svg>
