<svg xmlns="http://www.w3.org/2000/svg" width="36.517" height="62.754" viewBox="0 0 36.517 62.754"><defs><style>.a{fill:#71ce9e;}</style></defs><g transform="translate(13.053)"><g transform="translate(-13.053)"><path class="a" d="M34.545,2.061h0L.149,13.134h0a2.967,2.967,0,0,1,1.916-3.72l10.259-3.3h0a1.484,1.484,0,0,1,.958-1.86l5.4-1.763a1.488,1.488,0,0,1,1.86.958h0L30.81.145a2.967,2.967,0,0,1,3.734,1.916Z" transform="translate(-0.01 -0.001)"/><path class="a" d="M1.593,34.047,8.866,76.465a22.118,22.118,0,0,1,.321,3.758h0a.158.158,0,0,0,.158.158H29.71a.158.158,0,0,0,.158-.158v-.153a27.875,27.875,0,0,1,.4-4.692L37.35,34.047a.93.93,0,0,0-.93-1.1H2.518a.93.93,0,0,0-.925,1.1ZM11.717,76.042l-2-31.442a1.484,1.484,0,0,1,1.479-1.572h0a1.479,1.479,0,0,1,1.474,1.4l2,31.428A1.479,1.479,0,0,1,13.2,77.423h0A1.479,1.479,0,0,1,11.717,76.042Zm7.757,1.4h0a1.484,1.484,0,0,1-1.484-1.484V44.525a1.484,1.484,0,0,1,1.484-1.484h0a1.484,1.484,0,0,1,1.484,1.484V75.944a1.484,1.484,0,0,1-1.484,1.484Zm6.046,0h0a1.484,1.484,0,0,1-1.479-1.572l2-31.428a1.479,1.479,0,0,1,1.474-1.4h0A1.474,1.474,0,0,1,29,44.6l-1.99,31.428a1.479,1.479,0,0,1-1.479,1.4Z" transform="translate(-0.848 -17.627)"/></g></g></svg>