<svg id="Ebene_2" data-name="Ebene 2" xmlns="http://www.w3.org/2000/svg" width="15.216" height="26.147" viewBox="0 0 15.216 26.147">
  <g id="Ebene_1" data-name="Ebene 1" transform="translate(0)">
    <path id="Pfad_1" data-name="Pfad 1" d="M14.4.859h0L.068,5.473h0a1.236,1.236,0,0,1,.8-1.55L5.141,2.547h0a.618.618,0,0,1,.4-.775l2.25-.734a.62.62,0,0,1,.775.4h0L12.843.061a1.236,1.236,0,0,1,1.556.8Z" transform="translate(-0.01 -0.001)" fill="#12372b"/>
    <path id="Pfad_2" data-name="Pfad 2" d="M1.584,33.407,4.614,51.081a9.216,9.216,0,0,1,.134,1.566h0a.066.066,0,0,0,.066.066H13.3a.066.066,0,0,0,.066-.066v-.064a11.615,11.615,0,0,1,.167-1.955l2.951-17.22a.388.388,0,0,0-.388-.457H1.969a.388.388,0,0,0-.386.457ZM5.8,50.9,4.967,37.8a.618.618,0,0,1,.616-.655h0a.616.616,0,0,1,.614.581l.835,13.1a.616.616,0,0,1-.614.655h0A.616.616,0,0,1,5.8,50.9Zm3.232.581h0a.618.618,0,0,1-.618-.618v-13.1a.618.618,0,0,1,.618-.618h0a.618.618,0,0,1,.618.618V50.864a.618.618,0,0,1-.618.618Zm2.519,0h0a.618.618,0,0,1-.616-.655l.833-13.1a.616.616,0,0,1,.614-.581h0A.614.614,0,0,1,13,37.8l-.829,13.1a.616.616,0,0,1-.616.583Z" transform="translate(-1.274 -26.565)" fill="#12372b"/>
  </g>
</svg>
