<?xml version="1.0" encoding="UTF-8" standalone="no"?>
<svg
   viewBox="0 0 1920 1920"
   version="1.1"
   id="svg618"
   xmlns="http://www.w3.org/2000/svg"
   xmlns:svg="http://www.w3.org/2000/svg">
  <defs
     id="defs546">
    <style
       id="style544">.cls-1{fill:#221b15;}.cls-2{fill:#e7d800;}.cls-3{fill:#e7c400;}.cls-4{fill:#e7bd00;}.cls-5{fill:#e7ac00;}.cls-6{fill:#e7ce00;}.cls-7{fill:#e7bc00;}.cls-8{fill:#dfba00;}.cls-9{fill:#d9f3fc;}.cls-10{fill:#feee00;}.cls-11{fill:#b3b3b3;}.cls-12{fill:#00a99d;}.cls-13{fill:#efe79a;}.cls-14{fill:#a57704;}.cls-15{fill:#1a1a1a;}.cls-16{fill:none;stroke:#1a1a1a;stroke-miterlimit:10;stroke-width:17px;}.cls-16,.cls-18{stroke-linecap:round;}.cls-17,.cls-18{fill:#fff;}.cls-17{opacity:0.4;}.cls-18{stroke:#00a99d;stroke-linejoin:round;stroke-width:13px;}</style>
  </defs>
  <g
     id="Ebene_5"
     data-name="Ebene 5"
     transform="translate(0,368.77389)">
    <ellipse
       class="cls-1"
       cx="958.97998"
       cy="919.02002"
       rx="434.03"
       ry="97.889999"
       id="ellipse548" />
  </g>
  <g
     id="Ebene_4"
     data-name="Ebene 4"
     transform="translate(0,368.77389)">
    <path
       id="path551"
       class="cls-2"
       d="m 1399.4941,662.57227 c -1.192,0.0591 -1.6965,0.7382 -1.914,2.4707 -0.48,3.86 -1.4192,7.67125 -1.9492,11.53125 -0.28,2.09 -0.9409,2.68976 -3.1309,2.25976 -6.84,-1.37 -13.7394,-2.49046 -20.6094,-3.73046 -9.23,-1.68 -9.9009,1.82031 -11.7109,7.82031 a 15.59,15.59 0 0 0 -0.3301,1.81055 c -2.2667,12.26666 -4.1597,24.6 -5.6797,37 -2,16.29 -2.5703,32.53046 0.4297,48.73046 a 89.31,89.31 0 0 0 19.1211,41.31836 c 9.19,11.15 20.52,19.58086 33,26.63086 1.32,0.75 2.7193,1.35008 3.5293,2.83008 a 133.86,133.86 0 0 0 12.8594,19.41992 c 10.86,13.47 23.6597,24.57 39.4297,32 2.66,1.25 5.68,2.05078 4.75,6.05078 -0.03,0.16 0.4011,0.42844 0.6211,0.64844 0.99,-2.8 2.7393,-2.58875 5.0293,-1.46875 3.83,1.82 8.1601,1.89016 12.1601,3.16016 a 2.29,2.29 0 0 0 2.541,-0.58008 10.13,10.13 0 0 0 1.3301,-4.35156 l 12,-67.37891 a 13.52,13.52 0 0 0 0.3594,-4 c -1.09,-2.61 -2.75,-0.94961 -4,-0.34961 -12.22,5.85333 -24.4196,11.74636 -36.5996,17.67969 -4.07,1.98 -8.09,4.11914 -12.67,6.11914 8.69,-16.35 17.069,-32.22 25.629,-48 1.86,-3.44 1.7508,-4.28008 -0.8692,-7.08008 -5.28,-5.63 -10.68,-11.10969 -16,-16.67969 -7.22,-7.55 -14.63,-14.92968 -22,-22.92968 a 27.58,27.58 0 0 1 3.3692,0.51953 l 50.3496,9 c 4.36,0.77 4.49,0.68992 6.58,-3.08008 5.43,-9.78 10.5408,-19.72961 15.8008,-29.59961 3.75,-7.06 7.7192,-14.01898 11.1992,-21.20898 1.5,-6.89 2.5508,-13.87055 3.8008,-20.81055 a 4,4 0 0 0 -0.3906,-3.25977 c -15.0533,-2.76666 -30.1018,-5.48372 -45.1484,-8.15039 -26.45,-4.73 -52.9812,-9.41094 -79.4512,-14.21094 -0.565,-0.10249 -1.0382,-0.15054 -1.4356,-0.13085 z m -27.7949,25.64257 c 6.48,1.1 13.0017,2.22953 19.4317,3.26954 1.62,0.25 1.6286,1.08937 1.3886,2.35937 -0.76,4 -1.5401,8.07109 -2.1601,12.12109 -4.35,28.58 -4.6998,57.08852 1.4902,85.47852 A 184.57,184.57 0 0 0 1400,819.26367 c -2.84,-1.11 -4.4903,-3.00055 -6.3203,-4.56055 -19.18,-16.22 -27.8492,-37.31882 -28.6992,-62.04882 a 198.86,198.86 0 0 1 1.4804,-30.16992 c 0.63,-5.39 2.0591,-10.65032 2.2891,-16.07032 -0.15,-0.27 -0.4091,-0.53984 -0.3691,-0.83984 0.9,-5.8 1.4883,-11.70938 3.3183,-17.35938 z"
       transform="translate(0,-368.77389)" />
    <path
       id="path553"
       class="cls-3"
       d="m 1525.5293,685.02344 c -1.4733,8.25333 -2.9384,16.50333 -4.3984,24.75 a 23.52,23.52 0 0 0 0.3691,6.71094 c 2.32,16.04999 4.4402,32.16015 6.7402,48.16015 0.78,5.39 0.8403,5.53906 6.3203,6.53906 16.5734,2.94 33.1455,5.89776 49.7188,8.8711 a 4.11,4.11 0 0 1 2.6406,0.86914 c -5.77,2.83 -11.4,5.51953 -17,8.26953 -10.77,5.29 -21.6301,10.41117 -32.4101,15.70117 -2.57,1.23 -3.4,2.84891 -3,5.62891 1.63,11.06 3.1908,22.14047 4.6308,33.23047 0.86,6.89 2.1694,13.73961 2.8594,21.09961 -1.43,-1.44 -2.6302,-2.50969 -3.7402,-3.67969 -11.4667,-12.04667 -23.0089,-24.01373 -34.6289,-35.90039 -0.77,-0.79 -1.5018,-1.75024 -2.8418,-1.49024 -4.5667,25.67334 -9.1388,51.34 -13.7188,77 l 0.2891,0.39063 a 66.39,66.39 0 0 0 10.4707,1.59961 c 2.84,0.27 5.8699,-0.44914 7.1699,3.13086 0.76,-3.22 2.8403,-3.96071 6.0703,-4.22071 23.27,-1.9 43.62,-11.02984 62,-25.08984 3.36,-2.58 6.12,-5.94 11,-6.75 16.7,-2.79 32.18,-8.52922 46,-18.94922 13.82,-10.42 23.6904,-23.83094 31.1504,-39.21094 9.34,-19.14 14.4,-39.61047 19,-60.23047 1.09,-4.88 2.0593,-9.79843 3.2793,-14.64843 1.17,-4.67 -0.5496,-7.61016 -5.3496,-8.41016 -8.39,-1.41 -16.6695,-3.45 -25.1895,-4 -2.61,-0.17 -3.6115,-1.09133 -2.8515,-3.86133 a 88.71,88.71 0 0 0 1.6211,-8.77929 c 0.81,-4.95 1.4101,-4.09922 -3.3399,-4.94922 -38.7266,-6.91334 -77.4499,-13.81451 -116.1699,-20.70117 -2.22,-0.39 -4.4614,-0.72008 -6.6914,-1.08008 z m 123.9258,51.21679 c 0.2579,0.0166 0.5417,0.051 0.8554,0.10352 5.63,1.08 11.31,1.92055 17,2.56055 2.79,0.32 3.0802,1.53984 2.4102,3.83984 -2.91,10 -4.6812,20.24 -7.5312,30.25 a 213.65,213.65 0 0 1 -11.6387,32.44922 c -6,12.75 -13.8002,24.12023 -24.6602,33.24023 a 82.9,82.9 0 0 1 -26.6211,14.82032 1.31,1.31 0 0 1 -1.5293,-0.2793 c 2.66,-3.41 5.44,-6.76149 8,-10.27149 a 216.92,216.92 0 0 0 31,-61.11914 288,288 0 0 0 10.0606,-42.91015 c 0.3325,-2.0125 0.8489,-2.79953 2.6543,-2.6836 z"
       transform="translate(0,-368.77389)" />
    <path
       class="cls-4"
       d="m 1467.91,530.59 a 6.92,6.92 0 0 0 0.33,-1.81 c -0.21,-2.27 1.2,-2.1 2.45,-1.47 5.19,2.59 11.07,2.68 16.41,4.7 v 0 c 1.08,1.9 0.33,3.83 0,5.71 q -10.85,61.15 -21.76,122.32 c -1.46,8.18 -2.9,16.36 -4.39,24.53 -0.29,1.59 -0.39,3.28 -1.68,4.52 a 4,4 0 0 1 -3,0.42 q -41.83,-7.31 -83.61,-14.92 c -1.18,-0.21 -3,-0.25 -2.54,-2.45 a 144.14,144.14 0 0 0 72.2,-58.36 167.24,167.24 0 0 0 15.44,-31.5 c 4.82,-13 7.11,-26.51 8.76,-40.17 0.48,-3.83 0.93,-7.68 1.39,-11.52 z"
       id="path555" />
    <path
       class="cls-5"
       d="m 1459.14,689.06 q 14,-78.51 28,-157 c 5.41,-0.21 10.65,1.92 16.12,1.13 1.16,-0.16 2.76,-0.07 1.59,2 a 1.53,1.53 0 0 0 0.21,2 c -1.47,7.36 -4.38,14.32 -5.75,21.74 a 170.46,170.46 0 0 0 -2.72,41.44 151.45,151.45 0 0 0 8.21,41 141.68,141.68 0 0 0 12.9,27.7 144.86,144.86 0 0 0 15.56,20.93 c 4.4,4.91 9.41,9.17 14.06,13.81 0.2,1.64 -1.06,1.48 -2,1.53 a 15.59,15.59 0 0 1 -3.65,-0.45 q -38.73,-6.9 -77.46,-13.81 c -1.6,-0.28 -3.28,-0.38 -4.66,-1.41 z"
       id="path557" />
    <path
       class="cls-6"
       d="m 1370.14,672.16 c 0.37,1.93 2.09,1.38 3.23,1.59 q 42.89,7.71 85.77,15.31 v 0 a 10,10 0 0 1 -1.6,9 q -20.47,-3.59 -40.93,-7.18 c -15.87,-2.81 -31.72,-5.69 -47.6,-8.42 -2.36,-0.4 -3.25,-1.16 -2.47,-3.54 a 14.8,14.8 0 0 0 0.65,-3.62 c 0.1,-1.96 0.94,-3.06 2.95,-3.14 z"
       id="path559" />
    <path
       class="cls-7"
       d="m 1457.54,698.05 c 0.53,-3 1.07,-6 1.6,-9 q 42.28,7.53 84.57,15 c 1.14,0.2 2.57,1.31 3.58,-0.39 2,0.55 2.36,1.77 2,3.74 -1.19,6.86 -1.12,6.87 -7.88,5.67 q -40.14,-7.15 -80.28,-14.31 c -1.19,-0.17 -2.39,-0.46 -3.59,-0.71 z"
       id="path561" />
    <path
       class="cls-8"
       d="m 1521.13,341 c 1.66,7.46 2.31,15.06 3.4,22.61 1.65,11.51 3.15,23 4.65,34.57 0.29,2.17 1.59,2.76 3.52,3.09 q 26.54,4.65 53,9.42 l 3,0.53 c 0.13,1.1 -0.69,1.37 -1.26,1.65 -9.28,4.45 -18.61,8.82 -27.88,13.31 -7.72,3.73 -15.36,7.62 -23.08,11.36 a 2.09,2.09 0 0 0 -1.32,2.65 q 2.5,17.42 4.89,34.85 c 1,7.54 2.07,15.09 3.24,23.59 -3.62,-3.71 -6.62,-6.77 -9.59,-9.85 q -15.84,-16.43 -31.68,-32.86 A 9.28,9.28 0 0 0 1500.8,455 c -8.13,3.84 -16.27,7.64 -24.37,11.54 -9.84,4.74 -19.64,9.57 -29.6,14.43 -0.37,-1 0.23,-1.6 0.56,-2.22 q 12.87,-24.11 25.82,-48.16 c 1.13,-2.09 1.18,-3.44 -0.65,-5.33 -13.25,-13.61 -26.35,-27.38 -39.7,-41.32 a 5.9,5.9 0 0 1 3.45,0.16 c 17.8,3.15 35.6,6.28 53.37,9.55 2.22,0.4 3.27,-0.14 4.31,-2.08 8.66,-16.37 17.43,-32.67 26.17,-49 0.3,-0.51 0.65,-1.03 0.97,-1.57 z"
       id="path563" />
    <path
       class="cls-10"
       d="m 1371.7,319.44 c -0.86,6.08 -2.44,12.05 -3,18.2 a 1.18,1.18 0 0 1 -0.74,-1.48 c 1,-5.3 1.9,-10.6 2.9,-15.89 0.14,-0.27 0.57,-0.55 0.84,-0.83 z"
       id="path567" />
    <rect
       class="cls-11"
       x="570.76001"
       y="118.35"
       width="22.59"
       height="407.85999"
       rx="11.29"
       transform="rotate(6.43,582.0888,322.33738)"
       id="rect571" />
  </g>
  <g
     id="Ebene_7"
     data-name="Ebene 7"
     transform="translate(0,368.77389)">
    <path
       class="cls-12"
       d="m 1110.34,710 301.4,-189.63 c 0,0 15.81,-16.38 57.93,-15.87 42.12,0.51 82.41,19.61 69.18,37.3 -13.23,17.69 -65.21,8.71 -66,18.86 -0.66,8.82 -11.73,37.57 -26.07,45.3 l -344.62,233.4 z"
       id="path574" />
    <path
       class="cls-12"
       d="M 824.53,713.94 647.43,405 c 0,0 -6.28,-21.88 -43.7,-41.21 -37.42,-19.33 -82,-21.37 -78.59,0.46 3.41,21.83 58,40 57.71,50.14 -0.32,9.67 -5.46,41.57 -5.48,50.86 L 771,832 Z"
       id="path576" />
    <path
       class="cls-12"
       d="m 1501.59,545.1 c 0,0 13,-5.43 20.14,16.29 7.14,21.72 -2.59,50.32 -7.5,52.47 -4.91,2.15 -29.48,3.19 -32.4,-8.23 -2.92,-11.42 3.42,-55.45 19.76,-60.53 z"
       id="path578" />
    <path
       class="cls-12"
       d="m 560.74,384.05 c 0,0 -11,-8.86 -23.9,10 -12.9,18.86 -11.62,49 -7.5,52.47 4.12,3.47 27.4,11.33 33.4,1.18 6,-10.15 12.26,-54.2 -2,-63.65 z"
       id="path580" />
    <path
       class="cls-13"
       d="m 613.08,147.85 c 0,0 -7.39,-7.89 -22.39,-3.08 0,0 -180.54,-35.06 -373.13,-3.71 L 173.3,321.94 c 0,0 279.15,-12.62 395.64,15.88 0,0 10.13,-5.92 22.52,1.8 z"
       id="path582" />
    <path
       class="cls-14"
       d="m 263.92,204.09 c 5.88,-1 8.81,-1.44 14.66,-2.29 -1,4.32 -1.47,6.47 -2.46,10.78 -5.69,0.81 -8.54,1.24 -14.27,2.16 q -4.2,18.06 -8.48,36.1 c -6.74,0.95 -10.12,1.47 -16.93,2.57 q 4.4,-17.86 8.68,-35.76 c -3.57,0.66 -5.36,1 -9,1.72 1,-4.22 1.55,-6.34 2.58,-10.57 3.57,-0.74 5.35,-1.1 8.91,-1.78 0.2,-0.85 0.3,-1.28 0.51,-2.13 a 26.3,26.3 0 0 1 8.88,-14.12 35.2,35.2 0 0 1 17.48,-7.77 32.81,32.81 0 0 1 6.89,-0.46 13.32,13.32 0 0 1 5.11,1.11 l -6.64,10.83 a 10,10 0 0 0 -6.29,-0.68 c -5,0.8 -8.08,3.58 -9.16,8.24 z"
       id="path584" />
    <path
       class="cls-14"
       d="m 334.6,222.93 c -14.13,0.88 -28.2,2 -42.29,3.46 a 7.44,7.44 0 0 0 3.86,6.56 c 2.48,1.46 5.85,2 10.09,1.63 a 29.39,29.39 0 0 0 8,-1.76 28,28 0 0 0 7.06,-4 c 2.71,3 4.06,4.56 6.74,7.63 -6.37,5.57 -14.58,8.66 -24.74,9.51 q -9.51,0.79 -16.19,-1.61 c -4.44,-1.62 -7.59,-4.12 -9.42,-7.56 -1.83,-3.44 -2.2,-7.53 -1.1,-12.31 a 31.52,31.52 0 0 1 6.88,-13.33 44.15,44.15 0 0 1 28.93,-15.17 28.24,28.24 0 0 1 14.17,1.81 15.67,15.67 0 0 1 8.4,8.15 c 1.64,3.7 1.9,8.11 0.77,13.2 -0.04,0.13 -0.43,1.41 -1.16,3.79 z M 300.23,210.29 A 17.45,17.45 0 0 0 294,218.2 c 11.15,-1.24 16.68,-1.75 27.65,-2.57 a 8,8 0 0 0 -2.92,-7 c -2.08,-1.65 -4.92,-2.3 -8.54,-2 a 20.08,20.08 0 0 0 -9.96,3.66 z"
       id="path586" />
    <path
       class="cls-14"
       d="m 374.37,194.4 a 32.8,32.8 0 0 1 11.39,-1.85 c -1.19,5.22 -1.78,7.83 -3,13.06 q -2.55,-0.18 -3.45,-0.18 a 18.31,18.31 0 0 0 -11.3,3.51 q -4.59,3.48 -6.12,10.31 l -5.15,23.09 c -6.27,0.15 -9.43,0.25 -15.78,0.51 q 5.43,-24.48 10.89,-48.94 c 6.07,-0.25 9.1,-0.35 15.12,-0.48 l -1.45,6.46 a 23.73,23.73 0 0 1 8.85,-5.49 z"
       id="path588" />
    <path
       class="cls-14"
       d="m 420.06,240.69 a 19.84,19.84 0 0 1 -6,2.06 32.64,32.64 0 0 1 -7,0.52 c -6.23,-0.19 -10.74,-1.76 -13.51,-4.77 -2.77,-3.01 -3.51,-7.38 -2.21,-13.12 1.82,-8 2.73,-12 4.56,-20 -3.28,-0.05 -4.93,-0.08 -8.23,-0.1 1,-4.35 1.48,-6.53 2.47,-10.88 3.31,0 4.95,0.06 8.24,0.13 l 2.72,-11.85 c 6.19,0.15 9.26,0.26 15.39,0.54 -1.1,4.71 -1.65,7.07 -2.74,11.78 5.26,0.22 7.87,0.35 13.08,0.65 -1,4.3 -1.51,6.45 -2.51,10.76 -5.21,-0.28 -7.82,-0.4 -13.07,-0.6 -1.82,7.89 -2.73,11.84 -4.54,19.75 -0.47,2 -0.26,3.64 0.62,4.78 0.88,1.14 2.36,1.76 4.44,1.84 a 12,12 0 0 0 6.53,-1.55 c 0.7,4.02 1.06,6.03 1.76,10.06 z"
       id="path590" />
    <path
       class="cls-14"
       d="m 439.27,195.37 c 6,0.45 9,0.7 15,1.25 q -5.69,23.87 -11.3,47.74 c -5.95,-0.41 -8.93,-0.6 -14.93,-0.92 q 5.56,-24.04 11.23,-48.07 z m 2.87,-8.85 a 6.16,6.16 0 0 1 -1.3,-5.72 8.47,8.47 0 0 1 3.92,-5.3 11.1,11.1 0 0 1 7.26,-1.62 9,9 0 0 1 6.19,2.79 5.91,5.91 0 0 1 1.31,5.56 8.65,8.65 0 0 1 -3.93,5.43 11.18,11.18 0 0 1 -7.24,1.64 8.72,8.72 0 0 1 -6.21,-2.78 z"
       id="path592" />
    <path
       class="cls-14"
       d="m 519.72,205.36 q -4.56,19 -9.13,38 c -2,8.41 -5.92,14.36 -11.71,17.92 -5.79,3.56 -13.31,4.89 -22.58,4 a 54.91,54.91 0 0 1 -13.52,-2.92 26.6,26.6 0 0 1 -9.81,-5.74 c 3.29,-3.79 4.93,-5.67 8.22,-9.42 a 20.81,20.81 0 0 0 7.18,4.65 32.8,32.8 0 0 0 9.43,2.4 q 7.59,0.76 12,-2 4.41,-2.76 5.89,-9.12 c 0.2,-0.8 0.29,-1.19 0.48,-2 -4.72,3.38 -10.48,4.69 -17.3,4 a 26.41,26.41 0 0 1 -12.1,-4.13 18.8,18.8 0 0 1 -7.3,-8.91 20.25,20.25 0 0 1 -0.55,-12.31 24.71,24.71 0 0 1 6.27,-11.65 27.07,27.07 0 0 1 11.13,-7 29.34,29.34 0 0 1 13.38,-1.13 c 7.29,1 12.25,4.06 15,9 l 1.42,-5.9 c 5.43,0.9 8.16,1.32 13.6,2.26 z m -25.06,27 a 11.92,11.92 0 0 0 5.66,-7.73 9.67,9.67 0 0 0 -1.69,-8.72 c -1.95,-2.44 -4.84,-3.93 -8.7,-4.44 a 15.43,15.43 0 0 0 -10.32,2 12.26,12.26 0 0 0 -5.76,7.91 9.51,9.51 0 0 0 1.76,8.76 c 2,2.4 4.93,3.81 8.8,4.26 a 15.81,15.81 0 0 0 10.25,-2.05 z"
       id="path594" />
    <path
       class="cls-14"
       d="m 523,251.44 a 6.57,6.57 0 0 1 -1.25,-5.82 7.65,7.65 0 0 1 3.78,-5 10,10 0 0 1 6.89,-1.11 8.92,8.92 0 0 1 5.87,3.19 6.42,6.42 0 0 1 1.26,5.69 7.7,7.7 0 0 1 -3.82,5 10.29,10.29 0 0 1 -6.9,1.24 8.63,8.63 0 0 1 -5.83,-3.19 z m 11.33,-57.55 c 6.75,1.35 10.11,2.05 16.8,3.52 q -5.74,18.6 -11.59,37.17 c -4.57,-0.8 -6.85,-1.19 -11.43,-2 q 3.17,-19.31 6.25,-38.69 z"
       id="path596" />
  </g>
  <g
     id="Ebene_6"
     data-name="Ebene 6"
     transform="translate(0,368.77389)">
    <path
       class="cls-12"
       d="m 1244.58,591.9 c 6,11.46 11.82,23 15.72,33.35 12.7,33.88 -22.23,30.75 -22.23,30.75 0,0 -113.92,-28 -193.33,63.11 -79.41,91.11 -92.11,91.76 -171.53,0.7 -79.42,-91.06 -192.08,-63.11 -192.08,-63.11 0,0 -34.94,3.18 -22.24,-30.7 3.94,-10.49 9.8,-22.1 15.9,-33.67 -12.15,-3.23 -33.08,-10.17 -23.85,-17.86 8.85,-7.37 29.67,-13.38 41.51,-16.34 5.75,-12.32 9.32,-22.84 7.74,-29.54 -4.24,-18 -48.71,-214.95 27.53,-295.42 0,0 19,-12.7 47.64,15.89 C 797.3,271 856,344 882.17,376.84 a 36.59,36.59 0 0 0 33.39,13.48 l 88.08,-0.7 A 36.62,36.62 0 0 0 1037,376.14 c 26.13,-32.8 84.87,-105.89 106.81,-127.83 28.59,-28.59 47.65,-15.88 47.65,-15.88 76.24,80.47 31.77,277.41 27.53,295.41 -1.63,6.91 2.21,17.88 8.27,30.7 12,3.1 31.31,8.87 39.73,15.89 8.9,7.4 -10.13,14.1 -22.41,17.47 z"
       id="path599" />
    <ellipse
       class="cls-15"
       cx="958.97998"
       cy="746.41998"
       rx="35.470001"
       ry="28.59"
       id="ellipse601" />
    <path
       class="cls-16"
       d="m 1017.51,578.3 c 0,0 36.66,-49.64 102.89,-15.47"
       id="path603" />
    <path
       class="cls-16"
       d="m 906.31,577.18 c 0,0 -37.76,-48.81 -103.22,-13.18"
       id="path605" />
    <path
       class="cls-12"
       d="m 1186.25,1002.25 a 1768.68,1768.68 0 0 1 -454.54,0 L 791,733.77 c 32.42,0 85.66,39.77 115.31,57.17 29.65,17.4 81.55,17.4 111.2,0 29.65,-17.4 77,-57.17 109.44,-57.17 z"
       id="path607" />
    <path
       class="cls-17"
       d="m 1095.35,385 66.17,-98.15 a 11.29,11.29 0 0 1 19.45,1.24 c 14.36,28.69 29.67,87.25 15.51,157.55 -10.23,50.82 -80.29,-4.64 -101.38,-37.51 a 21,21 0 0 1 0.25,-23.13 z"
       id="path609" />
    <path
       class="cls-17"
       d="M 823.18,385 757,286.81 a 11.29,11.29 0 0 0 -19.45,1.24 c -14.36,28.69 -29.67,87.25 -15.51,157.55 10.23,50.82 80.29,-4.64 101.38,-37.51 A 21.05,21.05 0 0 0 823.18,385 Z"
       id="path611" />
    <path
       class="cls-18"
       d="m 962.93,792.39 v 17.4 c 0,0 -48.38,7.28 -83.09,-31 C 845.13,740.51 795,734.66 795,734.66 c 0,0 -40.07,-7.38 -76.83,0 -36.76,7.38 17.53,-39.46 17.53,-39.46 L 667,648 c 0,0 165.11,-20.44 223.17,86.67 -0.04,-0.01 38.08,56.7 72.76,57.72 z"
       id="path613" />
    <path
       class="cls-18"
       d="m 1199.83,734.66 c -36.77,-7.38 -76.83,0 -76.83,0 0,0 -50.18,5.87 -84.88,44.13 -34.7,38.26 -83.09,31 -83.09,31 v -17.4 c 34.67,-1 72.8,-57.73 72.8,-57.73 C 1085.89,627.55 1251,648 1251,648 l -68.7,47.2 c 0,0 54.29,46.8 17.53,39.46 z"
       id="path615" />
  </g>
</svg>
