<svg xmlns="http://www.w3.org/2000/svg" viewBox="0 0 28.86 21.59"><defs><style>.cls-1{fill:#444;}</style></defs><g id="Ebene_2" data-name="Ebene 2"><g id="Ebene_4" data-name="Ebene 4"><polygon class="cls-1" points="0.32 14.21 0 12.24 28.54 7.5 28.86 9.47 0.32 14.21"/><path class="cls-1" d="M8.19,6.25A2.05,2.05,0,0,1,8.7,4.5c1-1.07,3.14-1.61,5.94-1.48,4.73.23,6.21,3.56,6.27,3.7l1.33-.55,1.45-.59C23.6,5.36,21.49.35,14.78,0,10-.21,7.61,1.24,6.47,2.49A5,5,0,0,0,7.32,10l5.58-.93C10.57,8.63,8.4,7.66,8.19,6.25Z"/><path class="cls-1" d="M20.59,15.47A1.68,1.68,0,0,1,20.25,17c-.92,1.11-3.22,1.7-6.13,1.55C9.38,18.35,7.9,15,7.85,14.89l-1.36.55,0,0L5.07,16c.09.22,2.2,5.23,8.9,5.55.34,0,.67,0,1,0,3.49,0,6.17-.93,7.6-2.66a4.66,4.66,0,0,0,1-4.15,5.7,5.7,0,0,0-1.9-3.09l-5.37.89C18.86,13.08,20.24,14,20.59,15.47Z"/><path class="cls-1" d="M20.39,10.86l-7.66,1.23.18,0,7.51-1.25Z"/></g></g></svg>