<svg xmlns="http://www.w3.org/2000/svg" viewBox="0 0 23.83 22.75"><defs><style>.cls-1{fill:#444;}</style></defs><g id="Ebene_2" data-name="Ebene 2"><g id="Ebene_4" data-name="Ebene 4"><rect class="cls-1" x="5.91" y="1.35" width="17.92" height="3"/><rect class="cls-1" x="5.91" y="9.9" width="17.92" height="3"/><rect class="cls-1" x="5.91" y="18.4" width="17.92" height="3"/><path class="cls-1" d="M2.82.57V5.13a.53.53,0,0,1-.58.57.53.53,0,0,1-.57-.57V1.78L1.42,2a.6.6,0,0,1-.34.18A.51.51,0,0,1,.66,2a.56.56,0,0,1-.17-.41.6.6,0,0,1,.19-.39l1-1A.78.78,0,0,1,2.29,0,.51.51,0,0,1,2.82.57Z"/><path class="cls-1" d="M4.19,13.68a.53.53,0,0,1-.57.57H.75a.53.53,0,0,1-.58-.57,2.29,2.29,0,0,1,.19-1A2.11,2.11,0,0,1,.83,12a3.55,3.55,0,0,1,.58-.46L2,11.23l.71-.41a1.67,1.67,0,0,0,.36-.3.49.49,0,0,0,.09-.3c0-.33-.07-.42-.09-.44s-.11-.08-.44-.08H1.76a1,1,0,0,0-.41.06.26.26,0,0,0-.09.18.71.71,0,0,1-.17.36.54.54,0,0,1-.42.16.57.57,0,0,1-.42-.16.51.51,0,0,1-.14-.45,1.47,1.47,0,0,1,.52-1,1.85,1.85,0,0,1,1.13-.32h.82A1.7,1.7,0,0,1,3.83,9a1.7,1.7,0,0,1,.42,1.25,1.54,1.54,0,0,1-.27.92,2.59,2.59,0,0,1-.66.61l-.8.48L2,12.57a2.07,2.07,0,0,0-.41.36.71.71,0,0,0-.12.18h2.2A.53.53,0,0,1,4.19,13.68Z"/><path class="cls-1" d="M4.36,21a1.78,1.78,0,0,1-.44,1.3,1.79,1.79,0,0,1-1.31.44H1.74a1.83,1.83,0,0,1-1.19-.34,1.47,1.47,0,0,1-.54-1,.55.55,0,0,1,.13-.46.62.62,0,0,1,.43-.16.55.55,0,0,1,.58.54.34.34,0,0,0,.12.23,1.15,1.15,0,0,0,.47.07h.87a.83.83,0,0,0,.5-.1s.1-.14.1-.49-.07-.46-.1-.49a.83.83,0,0,0-.5-.1H2a.58.58,0,0,1,0-1.15H2.9c.07,0,.09,0,.11-.07a1.19,1.19,0,0,0,.08-.48c0-.34-.07-.43-.09-.44s-.11-.09-.44-.09H1.82a1,1,0,0,0-.41.06.26.26,0,0,0-.1.19A.56.56,0,0,1,.73,19a.58.58,0,0,1-.43-.17.51.51,0,0,1-.12-.46,1.41,1.41,0,0,1,.52-1,1.8,1.8,0,0,1,1.12-.31h.74a1.7,1.7,0,0,1,1.25.42,1.7,1.7,0,0,1,.42,1.25,1.59,1.59,0,0,1-.28,1,1.15,1.15,0,0,1,.26.41A2.33,2.33,0,0,1,4.36,21Z"/></g></g></svg>