<svg xmlns="http://www.w3.org/2000/svg" xmlns:xlink="http://www.w3.org/1999/xlink" viewBox="0 0 50.74 50.74"><defs><style>.cls-1{fill:none;}.cls-2{clip-path:url(#clip-path);}.cls-3{fill:#444;}</style><clipPath id="clip-path" transform="translate(12.25 11.3)"><rect class="cls-1" width="26.23" height="26.23"/></clipPath></defs><g id="Ebene_2" data-name="Ebene 2"><g id="Ebene_4" data-name="Ebene 4"><g class="cls-2"><rect class="cls-3" x="-17.28" y="1.53" width="36.72" height="1" transform="translate(11.13 12.66) rotate(-45)"/><rect class="cls-3" x="-13.84" y="4.97" width="36.72" height="1" transform="translate(9.71 16.1) rotate(-45)"/><polygon class="cls-3" points="6.88 32.84 7.58 33.55 17.38 23.75 18.86 20.85 6.88 32.84"/><polygon class="cls-3" points="33.55 7.58 32.84 6.88 27.47 12.25 27.95 13.18 33.55 7.58"/><polygon class="cls-3" points="19.5 28.37 19.38 28.64 19.36 28.66 19.5 28.37"/><polygon class="cls-3" points="13.73 32.86 10.31 36.28 11.02 36.99 14.67 33.34 13.81 32.9 13.73 32.86"/><polygon class="cls-3" points="23.15 23.44 22.68 24.37 23.64 24.37 26.56 21.45 26.08 20.51 23.15 23.44"/><polygon class="cls-3" points="36.99 11.02 36.28 10.31 29.8 16.79 30.28 17.73 36.99 11.02"/><polygon class="cls-3" points="40.42 14.46 39.72 13.75 32.13 21.34 32.61 22.27 40.42 14.46"/><polygon class="cls-3" points="13.75 39.72 14.46 40.42 25.51 29.37 24.1 29.37 13.75 39.72"/><polygon class="cls-3" points="17.19 43.16 17.9 43.86 31.22 30.54 30.74 29.61 17.19 43.16"/><polygon class="cls-3" points="43.86 17.9 43.16 17.19 34.46 25.89 34.94 26.82 43.86 17.9"/><polygon class="cls-3" points="47.3 21.33 46.59 20.63 36.79 30.43 37.27 31.37 47.3 21.33"/><polygon class="cls-3" points="34.26 34.27 33.36 34.73 33.07 34.15 20.63 46.59 21.33 47.3 34.48 34.15 34.26 34.27"/><rect class="cls-3" x="6.79" y="25.6" width="36.72" height="1" transform="translate(1.17 36.73) rotate(-45)"/><polygon class="cls-3" points="29.7 25.37 29.52 25.37 29.64 25.25 29.7 25.37"/><path class="cls-3" d="M23.79,19.88l-1.85-3.62-.48-.94-1.85-3.6-.48-.94L17.28,7.17l-.48-.93L15,2.63l-.48-.95-.2-.38H12L7.43,10.14,2,20.7l.21.12.94.48.18.09,1.34.68L5,21.39l2.07-4,.15-.29H19l.26.48.48.94,1.48,2.9.35.68.1,0,1.24-.64,1.33-.69Zm-15-5.81,4.33-8.44,1.46,2.84.48.92L16.9,13l.48.94.06.12Z" transform="translate(12.25 11.3)"/></g></g></g></svg>