<svg xmlns="http://www.w3.org/2000/svg" viewBox="0 0 17.23 21.47"><defs><style>.cls-1{fill:#444;}</style></defs><g id="Ebene_2" data-name="Ebene 2"><g id="Ebene_4" data-name="Ebene 4"><path class="cls-1" d="M16.92,12.89a5.75,5.75,0,0,0-2.4-3.19,9.45,9.45,0,0,0,.65-1.14,5.93,5.93,0,0,0-.37-5.74A6,6,0,0,0,9.69,0H0V21.47H11.15a5.91,5.91,0,0,0,5.67-4A7.6,7.6,0,0,0,16.92,12.89ZM3,3H9.69a3,3,0,0,1,2.58,1.43,2.91,2.91,0,0,1,.19,2.84l0,0a2.63,2.63,0,0,1-2.34,1.4L3,8.73ZM14,16.56a2.93,2.93,0,0,1-2.82,1.91H3V11.73l8.16,0h0a3,3,0,0,1,2.86,2A4.61,4.61,0,0,1,14,16.56Z"/></g></g></svg>