<svg xmlns="http://www.w3.org/2000/svg" viewBox="0 0 162 162"><defs><style>.cls-1{fill:#fff;}.cls-2{fill:#257da7;}</style></defs><g id="Ebene_2" data-name="Ebene 2"><g id="Ebene_1-2" data-name="Ebene 1"><path class="cls-1" d="M0,161.51V0H72.52l60.67,61.41L98.33,157.78s-11.77,3.61-22.87,3.61S0,161.51,0,161.51Z"/><polygon class="cls-2" points="39.85 94.78 0 94.78 0 161.51 75.46 161.39 39.85 94.78"/><path class="cls-2" d="M0,12.06V76.49H34.37q16.67,0,26.51-8.64t9.84-23.11q0-15.77-9.38-24.16T34.25,12.06Z"/><path class="cls-2" d="M130.65,23.68A80.48,80.48,0,0,0,76.11.05c-.87,0-1.75,0-2.63,0H67a47.8,47.8,0,0,1,10.8,6.81q15.44,13.05,15.44,38,0,15.84-8.56,27.61T60.82,90l37.51,67.78a80.85,80.85,0,0,0,32.32-134.1Z"/></g></g></svg>
