<?xml version="1.0" encoding="UTF-8" standalone="no"?>
<!-- Created with Inkscape (http://www.inkscape.org/) -->

<svg
   width="512"
   height="512"
   viewBox="0 0 135.46667 135.46667"
   version="1.1"
   id="svg5"
   xmlns="http://www.w3.org/2000/svg"
   xmlns:svg="http://www.w3.org/2000/svg">
  <defs
     id="defs2" />
  <g
     id="layer1">
    <path
       id="path31"
       style="fill:#257da7;fill-opacity:1;fill-rule:evenodd;stroke-width:0.999999"
       d="M 256.55273,0.17578125 A 255.47639,255.47639 0 0 0 87.412109,64.384766 C 101.83728,91.022885 144.16964,155.76757 242.20508,222.05859 323.61456,162.85047 391.27604,99.100424 426.05469,64.544922 A 255.47639,255.47639 0 0 0 256.55273,0.17578125 Z M 468.28516,112.73633 c -36.1187,53.18191 -94.48941,103.98069 -160.36133,148.90625 51.65682,27.77257 114.34529,54.36274 190.24414,76.94336 A 255.47639,255.47639 0 0 0 512.0293,255.65234 255.47639,255.47639 0 0 0 468.28516,112.73633 Z M 37.568359,124.34766 A 255.47639,255.47639 0 0 0 1.0761719,255.65234 255.47639,255.47639 0 0 0 16.490234,342.45508 C 71.404546,326.12115 127.18498,297.66109 179.68945,264.54492 122.73251,227.65534 72.150422,181.77184 37.568359,124.34766 Z M 244.72852,301.73242 c -68.26013,40.4223 -139.36594,74.06873 -199.142582,97.52539 A 255.47639,255.47639 0 0 0 256.55273,511.12891 255.47639,255.47639 0 0 0 476.10938,386.22266 C 408.71749,368.31444 324.45524,342.14197 244.72852,301.73242 Z"
       transform="scale(0.26458334)" />
  </g>
</svg>
