<svg xmlns="http://www.w3.org/2000/svg" viewBox="0 0 63.44 63.44"><defs><style>.cls-1{fill:#b8ce12;}</style></defs><g id="Ebene_2" data-name="Ebene 2"><g id="Ebene_1-2" data-name="Ebene 1"><g id="Ebene_2-2" data-name="Ebene 2"><g id="Ebene_1-2-2" data-name="Ebene 1-2"><path class="cls-1" d="M48.54,43.78c-2.76-.15-4.34-6-5.58-9a14.5,14.5,0,0,1-1.37-5.93c0-3.18,3.19-4.7,5.53-4.85-1-6.16-4.49-13.07-16.75-13.07-10.68,0-16.2,7.24-16.2,17.92,0,19.3,24.92,22.35,42.48,22.51a31.77,31.77,0,1,0-16.56,11c-15.93-1.92-35-11.18-35-32A25.3,25.3,0,0,1,30.37,5C46.56,5,51.46,15.72,52.88,24c2.41,0,5.89,1.52,5.89,4.86a14.35,14.35,0,0,1-1.38,5.93c-1.22,3-2.81,8.88-5.57,9Z"/></g></g></g></g></svg>