<?xml version="1.0" encoding="UTF-8" standalone="no"?>
<!-- Created with Inkscape (http://www.inkscape.org/) -->
<svg xmlns:dc="http://purl.org/dc/elements/1.1/" xmlns:cc="http://web.resource.org/cc/" xmlns:rdf="http://www.w3.org/1999/02/22-rdf-syntax-ns#" xmlns:svg="http://www.w3.org/2000/svg" xmlns="http://www.w3.org/2000/svg" xmlns:sodipodi="http://sodipodi.sourceforge.net/DTD/sodipodi-0.dtd" xmlns:inkscape="http://www.inkscape.org/namespaces/inkscape" version="1.0" width="66" height="66" viewBox="0 0 66 66" id="Layer_1" xml:space="preserve" sodipodi:version="0.32" inkscape:version="0.45.1" sodipodi:docname="cc-white.svg" inkscape:output_extension="org.inkscape.output.svg.inkscape" sodipodi:docbase="/home/azatoth/img"><metadata id="metadata8"><rdf:RDF><cc:Work rdf:about=""><dc:format>image/svg+xml</dc:format><dc:type rdf:resource="http://purl.org/dc/dcmitype/StillImage"/></cc:Work></rdf:RDF></metadata><sodipodi:namedview inkscape:window-height="774" inkscape:window-width="989" inkscape:pageshadow="2" inkscape:pageopacity="0.0" guidetolerance="10.0" gridtolerance="10.0" objecttolerance="10.0" borderopacity="1.0" bordercolor="#666666" pagecolor="#ffffff" id="base" inkscape:zoom="5.7121212" inkscape:cx="33" inkscape:cy="24.855161" inkscape:window-x="435" inkscape:window-y="203" inkscape:current-layer="Layer_1"/><defs id="defs8">
	
</defs>
<path id="path4116" style="fill:#ffffff;fill-opacity:1;fill-rule:evenodd;stroke:#000000;stroke-width:5.98238325;stroke-linejoin:round;stroke-miterlimit:4;stroke-dasharray:none;stroke-opacity:1" d="M 63.057881,33 C 63.058927,49.601075 49.601249,63.059458 33.000001,63.059458 C 16.398753,63.059458 2.9410742,49.601075 2.9421198,33 C 2.9410742,16.398927 16.398753,2.9405431 33.000001,2.9405431 C 49.601249,2.9405431 63.058927,16.398927 63.057881,33 L 63.057881,33 z "/><path id="path2166" d="M 32.545654,27.334257 L 28.128623,29.631569 C 27.656914,28.650951 27.078379,27.963197 26.391818,27.57071 C 25.704059,27.178223 25.06671,26.981379 24.477373,26.981379 C 21.533086,26.981379 20.060342,28.924612 20.060342,32.811077 C 20.060342,34.57787 20.433629,35.990586 21.179003,37.050421 C 21.924377,38.110257 23.023833,38.640775 24.477373,38.640775 C 26.401421,38.640775 27.755337,37.698566 28.54152,35.814146 L 32.604468,37.875005 C 31.740266,39.485764 30.543588,40.750845 29.01203,41.673851 C 27.481674,42.596856 25.792879,43.057759 23.948049,43.057759 C 21.003762,43.057759 18.627208,42.155158 16.821987,40.348756 C 15.015565,38.543554 14.112955,36.030194 14.112955,32.811077 C 14.112955,29.669978 15.026369,27.178223 16.851994,25.332212 C 18.67762,23.4874 20.983358,22.564395 23.771608,22.564395 C 27.85496,22.564395 30.780043,24.154749 32.545654,27.334257 z M 51.56769,27.334257 L 47.210674,29.631569 C 46.738964,28.650951 46.16043,27.963197 45.472669,27.57071 C 44.786109,27.178223 44.127155,26.981379 43.499409,26.981379 C 40.555122,26.981379 39.082378,28.924612 39.082378,32.811077 C 39.082378,34.57787 39.455666,35.990586 40.20104,37.050421 C 40.946413,38.110257 42.04587,38.640775 43.499409,38.640775 C 45.423457,38.640775 46.777373,37.698566 47.563557,35.814146 L 51.685318,37.875005 C 50.782707,39.485764 49.565624,40.750845 48.034066,41.673851 C 46.50371,42.596856 44.83412,43.057759 43.028899,43.057759 C 40.045004,43.057759 37.660046,42.155158 35.87403,40.348756 C 34.086814,38.543554 33.195006,36.030194 33.195006,32.811077 C 33.195006,29.669978 34.107218,27.178223 35.932844,25.332212 C 37.75847,23.4874 40.064207,22.564395 42.852458,22.564395 C 46.934609,22.564395 49.840488,24.154749 51.56769,27.334257 z "/>
</svg>