<svg xmlns="http://www.w3.org/2000/svg" viewBox="0 0 1920 800"><defs><style>.cls-1{opacity:0.3;}.cls-2{fill:#257da7;}</style></defs><g id="Ebene_5" data-name="Ebene 5"><g class="cls-1"><path class="cls-2" d="M1919.61,438.11a21.23,21.23,0,0,1-16,.21c-7.83-3.06-11.43-10.65-8.78-18.61,3.22-9.67,12.34-15.4,24.81-15.57Z"/><path class="cls-2" d="M1919.61,102.38c-4.66.29-9.32.58-13.73-1.44-5.24-2.4-6.18-6.94-2.3-11.23,4.29-4.73,10.15-6,16-7.32Z"/><path class="cls-2" d="M941.58,52.47c1.69,2.15,1.31,4.49,2.11,6.52,3-2.89,3-3,.45-6.23a65.16,65.16,0,0,1-13.77-33.24,29.08,29.08,0,0,1-.25-3.48c0-.43.33-.86.8-2,1.93,2.48,3.54,4.69,5.3,6.77,11.16,13.14,25.61,21,41.86,25.93,2.36.73,4.58.23,6.85-.46a65.2,65.2,0,0,1,21.67-2.93,84.75,84.75,0,0,0,14.92-.63c4.46-.6,9.09,0,12.31,3.87a3.76,3.76,0,0,0,4.44,1.21c12-3.37,22.44-9.18,31-18.35,1.5-1.61,1.38-2.71.57-5C1064.39,8.86,1051.63,3.3,1037.3.57c-24.89-4.74-49.06-1.88-72,9.27A49.76,49.76,0,0,0,949,22,71.68,71.68,0,0,1,965.07-2.08c4.38-4.32,4.36-4.4-1.32-7.1A41.16,41.16,0,0,1,945-26.32C940.5-14,936.4-2.65,932.3,8.68c-1.91-7.82-1.06-15.44.08-23,3.69-24.62,12.74-46.9,29.75-65.36,17.27-18.73,39.08-29.06,64.11-32.71,13.42-2,26.88-1.46,40.33,0,4.08.44,5.63,2,4.29,6.18-1.17,3.63-1.85,7.42-2.86,11.11-2.08,7.59-5.78,10.06-13.54,9-16.54-2.13-32.82-1.62-48.85,3.67-18.15,6-35,13.88-46.81,29.75-.79,1.07-1.61,2.12-2.36,3.22-4.72,7-4.72,7.06,3.19,9.25,6.93,1.93,12.8,5.22,17,11.37,2.71,3.92,7.35,6.2,9.85,10.5,1,1.68,2.7.64,4.09.2A93.47,93.47,0,0,1,1035-20.78,72.18,72.18,0,0,1,1066.24-7c3.21,2.4,4.93,3,7.87-.72,4.44-5.64,10.89-7.41,18-5.77,6.11,1.41,9.76,5.41,11.31,11.41,2.6,10.1-7.67,21.45-18.91,20.2-4.62-.51-5.79,1.17-6.59,5a126.07,126.07,0,0,1-5.89,20.1c-2.16,5.51-5.15,10.55-9.78,14.26-3,2.38-2.15,3.63.27,5.66a62.86,62.86,0,0,1,17.9,23.63c3.63,8.5,3.19,16.31-2.87,23.73s-11,16-18.48,22.2c-13.62,11.34-29.74,14.16-46.56,11.53-28-4.36-50.69-18-66.19-42.08C937.7,88.71,934.53,74,939,58.17c.4-1.44.9-2.86,1.43-4.26A7.46,7.46,0,0,1,941.58,52.47ZM953.27,80c-.3,1.81.58,2.47,1.15,3.23,11,14.52,25.52,24.15,42.6,30,21.72,7.45,43.57,8.59,65.57,1,3.66-1.26,5.46-3.18,5.43-7.17a27.7,27.7,0,0,0-7.33-18.58C1055,82,1048,77.34,1040.5,73.22a15.38,15.38,0,0,0-10.93-1.48c-17.13,3.22-34.3,7.1-51.83,2.5a3.82,3.82,0,0,0-3.71.82C968,80.17,961,81.37,953.27,80Z"/><path class="cls-2" d="M1523.45-47.49c.36,31,15.66,53.14,39.24,70.83-2.74-7.22-2.74-14,1.73-20.43S1575.31-6,1584-7.1a90.75,90.75,0,0,1-28.8-10.09c-12.77-7.2-23.14-16.66-29.07-30.4-4.29-9.95-5.59-20.14-2.65-30.7.29-1.07.21-2.38,1.54-2.92,1.26.26,1.28,1.42,1.59,2.28,4.93,13.53,13.41,24.4,24.71,33.18a13.71,13.71,0,0,0,8.11,3.33,68.32,68.32,0,0,1,38,13.47c1.48,1.09,2.81,2.26,4.8,2.38,11.25.72,21.87-1.27,31.71-7,2-1.13,2.5-2,1.84-4.6-3.45-13.82-13-22.13-24.9-28.25-18-9.26-36.88-14.15-57.32-11.1-4.71.7-8.92,3.11-13.79,3.69a40,40,0,0,1,16.81-13.37c18.63-8.21,37-5.57,55.31,1.35.94.35,1.85.75,2.77,1.15,2.31,1,3.41.56,3.1-2.25-1.25-11.19,8.14-21.2,18.72-23.91,8.69-2.22,18.17,1.35,22.23,8.45s2.55,16.65-3.5,23.1c-3.75,4-8.16,6.94-13.63,7.78-4.2.65-4.61,2-2.13,5.42,4.88,6.72,8.55,13.91,6.38,22.72a16,16,0,0,1-2.12,5c-1.83,2.78-4.09,5.38-5.36,8.41a32.72,32.72,0,0,1-18.54,18.46c-3.15,1.29-1.91,3.25-.91,5.25,3.62,7.17,6.35,14.57,7.25,22.68.88,7.87-1.36,13.92-8,18.53-4.9,3.43-9.54,7.24-14.16,11.05a12.74,12.74,0,0,1-5.76,2.69c-35.71,7.37-76.6-19.33-84.17-54.93-2.76-13-.51-25.12,5.46-36.74C1520.36-44.52,1521-46.33,1523.45-47.49ZM1591.23-6c8.56,4.06,14.56,9.84,13.53,19.63-1.25,11.94-9.67,17.29-21.56,20.07a50,50,0,0,0,26.71,1.57c.94-.2,2.58-.42,2.25-1.43-1.59-4.9,1.43-9.6-.05-14.69-2.44-8.41-7.23-15.18-12.37-21.95C1597.57-5.68,1595.3-7.1,1591.23-6Z"/><path class="cls-2" d="M668.25,343.17c3.14,7.35,2.77,13.65-5.21,17.75a3.51,3.51,0,0,0-1.77,3.38c0,7.34-3.14,13.05-8.83,17.48-1.51,1.18-1.52,2.44-.42,3.86,11.1,14.38-3.63,32.57-19.71,32.63-3,0-5.39.09-7.15,3.05-1.23,2.07-3.77,1.76-5.95,1.78s-3.4-.64-2-2.93c2.07-3.34.89-5.6-1.74-8.19-4.91-4.83-6.41-10.86-3.89-17.42,1.24-3.23.42-4.86-2.71-6.09a50.54,50.54,0,0,1-14.92-9c-1.66-1.43-3.26-2.29-5.15-.22-3.52,3.84-8.12,5-13.14,4.92-2.79,0-4.9.6-3.43,4,7.9,18.28,19.37,32.58,40.43,36.31,2.66.47,5.22-.58,8.13-.12-12.57,8.95-28.21,8.14-42.63-2.44-15.15-11.12-24.26-25.79-25-45a8.65,8.65,0,0,0-.4-2.94c-.69-1.64-1.27-3.8-3.35-3.91-1.73-.08-2.07,2-2.69,3.25-2.34,4.84-5.9,9.33-3.73,15.41.65,1.84-.46,4.06-1.78,5.55-7.91,8.91-6.72,19.81-6.33,30.29.84,22.61,10.71,42.36,20.68,62a10,10,0,0,0,4.21,4.1,21.12,21.12,0,0,1,7.21,6.79c1.63,2.55,2.62,5.94.15,7.82-5.06,3.86-3,8.55-2.65,13.16.88,11.39-2.74,20.87-11.82,28.08-5.3,4.2-10.55,8.45-16.15,12.46,3-4.91,6.15-9.71,8-15.18,2.78-8.09,2.74-8.28-4.59-12.64C536.05,528.9,533,526,533.1,521c.1-4.71,3.24-7,7-8.84s3.82-4.13.21-6.47c-3.08-2-6.25-3.83-8.66-6.67-3.66-4.32-3.91-7.09-.2-11.32,2.07-2.36.6-4-.24-5.83-5.37-11.85-10.29-23.79-12-36.88A90.08,90.08,0,0,1,522.42,405c1.17-3.68.7-5.42-3.18-6.49a17.42,17.42,0,0,1-9-6c-5.64-7.05-3.09-15.45,5.5-18.26a21.72,21.72,0,0,1,17.4,1.76c2.47,1.3,4.18,1.32,6-1a34.41,34.41,0,0,1,4.89-5c2.66-2.3,4-4.69,3.51-8.6A10.13,10.13,0,0,1,554,350.54c5.41-2.24,11.35-3.26,15.17-8.78,1.2,2.92-2.14,5.5.72,7.14s3.38-.36,3.07-2.77c-.15-1.15-.44-2.29-.55-3.45-.86-8.91,2.13-18.83,7.71-24.9a112.79,112.79,0,0,0,3.08,17.72c4.06,14.5,14.68,23.82,25.62,32.88a91.17,91.17,0,0,0,10.29,7c4,2.48,8.17,4.22,13.22,3,3.95-1,7.87.33,11.77,1.35,5.4,1.41,6.82.09,6.35-5.19a31.23,31.23,0,0,1-.08-4c.24-5.46-1.76-8.9-7.38-10.81-7.73-2.63-16-6.95-17.12-15.3-1.48-11.14-9.88-11.9-17.07-15a29.66,29.66,0,0,0-11.68-2.41c-1,0-2.24.18-2.59-1-.46-1.51,1-2,2-2.41,8.58-3.77,17.28-3.07,25.81-.06,4,1.43,8.24,2.69,11.8,5.32a4.49,4.49,0,0,0,2.79.77c11.55-.77,21.12,3.48,29.28,11.39Z"/><path class="cls-2" d="M1072.87,287.08c-9.9-9.11-21.55-15.56-33.25-21.92-12.57-6.83-25.31-13.38-37.83-20.32A127.35,127.35,0,0,1,963.31,212c-1.69-2.14-3.27-3.23-6.24-2.9A17.14,17.14,0,0,1,945.71,206c-6-4-6.55-10.55-.86-14.82,2.95-2.21,2.52-3.93,1.2-6.65-9.13-18.9-13.93-38.8-13-59.87.4-9.46,1.76-18.8,5.82-28,4.51,37.12,17,70.46,44.44,97.95,2.49-14.08,10.71-21.38,24.37-21,10,.3,17.76,6.82,19.73,15.6,3.12,13.89-4.57,21.46-17.12,26.36,5.67,4.36,11.39,7,16.92,9.95,15.29,8.1,31.35,14.74,46,24.12,18.41,11.8,31.26,27.7,36.39,49.32a22.6,22.6,0,0,1,.09,11.29c-3.06,11.93-5.82,23.93-8.81,35.88-.37,1.51-.19,3.36-2,4.63,0-5.89,0-11.56,0-17.24,0-3.63-.28-5.69-5.39-4.18-10.11,3-19.46.17-27.37-6.74-3-2.59-5.12-6-3.72-10.2s4.84-5.63,8.82-6.42c5.09-1,9.9.1,14.73,1.51,1.69.49,3.19,1.78,5.65,1.38-4.4-7.57-9.18-14.41-16.14-19.5Z"/><path class="cls-2" d="M1539.56,669.13c14.87,3.5,29,2,42.83-3.53a11.36,11.36,0,0,0,5.42-4.15A57.31,57.31,0,0,1,1614,640.58a17.64,17.64,0,0,0,9.14-8,55.17,55.17,0,0,0,7.24-22.65c.17-1.72.07-2.57-2.26-3.74-12.73-6.46-23.93-2.63-34.89,4a92,92,0,0,0-34.61,37.13,54,54,0,0,0-4.74,14.92c-3.93-14.79-2.94-29,5.45-42,11.69-18.07,28.26-28.84,49.9-31.12,12.68-1.33,18.48,1.9,23.79,13.35,4.1,8.86,8.91,17.6,7.15,28.05-.55,3.22,2.09,3.28,4.31,3.27,7.87,0,15.09,2.3,22,5.95,5.27,2.8,8,7.21,8.78,13.1a97.85,97.85,0,0,1,.54,19.94,39.56,39.56,0,0,1-15.7,29.06c-20.83,16.1-44,20.27-69.24,12.22a19.79,19.79,0,0,1-6.33-2.91c-6.33-5.08-12.82-8-21.3-5.38a8,8,0,0,1-9.78-4.3c-2-4.16.53-7.36,3.24-10.23,1.82-1.92,3.81-3.67,6.36-6.1C1553.76,681.58,1545.46,677.1,1539.56,669.13Zm129.12-6.24c.21-4-.07-3.8-1.69-6.26-6.33-9.56-34.57-9.88-41.64.21-8.17,11.66-18.46,21.95-32.56,27-1.16.42-2.14,1-2.18,2.38-.11,3.74-2,6.59-4.53,9.16-1.91,2-.87,2.86,1.24,3.26,3.1.59,6.19,1.34,9.32,1.62,15.72,1.4,30.17-2.64,44.12-10.1-12.27-10.8-14.44-20.49-6.88-29.15C1642.87,650.76,1655.62,651.31,1668.68,662.89Z"/><path class="cls-2" d="M928.1,512c4.08-6.27,7.85-12.81,14.5-16.87,1.65-1,3.1-2.51,5.23-2.41.77.93.19,1.68-.23,2.33-6.71,10.38-7.2,21.91-6.3,33.71.26,3.37,1.36,6,4.87,7.38a7.94,7.94,0,0,1,4.34,4c3.92,8.6,9,16.8,10.2,26.39A10.18,10.18,0,0,0,964,573a70.92,70.92,0,0,0,20.26,13.48c3.48,1.5,5.32.66,7.21-2.41,5.55-9.06,4.48-18.64,2-28.06a84,84,0,0,0-26.12-42.27,38.92,38.92,0,0,0-11.14-6.55c-1.29-.54-3-.51-3.65-2.67,7.31-1.2,14.37-.65,20.79,2.77,22.13,11.81,34.23,30.57,36.37,55.37a41.59,41.59,0,0,1-2.94,18.61c-2.19,5.51-5.86,9.07-11.92,10.1-4.91.85-9.79,2-14.63,3.17-5.36,1.34-10.25-.34-15.06-2.2-2.52-1-3.43-.5-4.17,2.08a56.15,56.15,0,0,1-9.74,20c-4,5-8.88,7.37-15.17,6.66-5.62-.64-11.29-1.16-16.8-2.35-6.29-1.35-10.58-6-14.89-10.43-5.61-5.72-8.29-13.64-14.28-19.14a6,6,0,0,1-1.65-5.58c1.31-5.59-.54-10.9-1-16.33-1.17-14.71,1.25-28.55,10.21-40.7,6.84-9.28,16.46-13.73,27.62-15.23a8.38,8.38,0,0,1,2.83.67c-17.15,10.28-23,26.3-23,45.28,0,6.53,0,6.48,6.2,5.75a27.89,27.89,0,0,1,5.48-.11c8.6.7,12.55,7.3,9.22,15.26a20.71,20.71,0,0,1-9,10.39c-3.7,2.09-3.78,4.34-1.68,7.64,3,4.79,6.06,9.54,10.09,13.6,5.69,5.74,8.85,5.63,13.91-.88,6-7.74,7.45-16.89,7.9-26.32.09-1.9-1.16-3-2.34-4.21-6.74-6.61-10.64-15.73-20.28-19.92-5.62-2.45-5.46-7.08-2.42-12.66,1.25-2.28,3.33-4.44,3-7.25C924.25,529.54,925.56,520.73,928.1,512Z"/><path class="cls-2" d="M1589.82,168.37a78.09,78.09,0,0,1,4.14,28.5c-.17,4.21-1,7.89-4.09,10.85s-3.48,5.63-1.12,9.57c3.78,6.3,1,12.3-5.94,12.74-4.85.3-9.17.33-11.2,6.39,2.93-5.83.4-8-4.31-10.12a25.07,25.07,0,0,1-12.89-12.72c-2.75-6.17-.15-10.88,6.53-12,3.75-.66,7.24.5,10.74,1.65,1.38.45,2.92,1.81,4.19.77,1.5-1.23.4-3.12.1-4.7-2.41-12.64-9.1-23.1-16.88-33-11-14.06-24.72-25.66-36.22-39.27-27.47-32.48-38.33-69.11-27.19-111a90.18,90.18,0,0,1,11-24.54c.65-1,.89-2.61,3-2.66-.75,7.64-2.3,15.1-2.94,22.68-2.74,32.19,6.22,60.84,25.34,86.61,9.27,12.5,20.32,23.35,31.39,34.18a137.65,137.65,0,0,1,25.4,33.15C1589.16,166.37,1589.49,167.37,1589.82,168.37Z"/><path class="cls-2" d="M1584.74,714.62c4.92,4.18,9.57,8.34,14.44,12.21,30.86,24.48,65.63,30.68,103.57,22,2.5-.58,3.56-1.76,4.08-4.21,2.16-10.17,9-15.91,18.8-17.54s17.7,2,22.58,11c1.3,2.4,3.17,2.51,5.39,2.61a55,55,0,0,1,20.32,4.63c10.14,4.54,18.67,10.47,22.59,21.77,2.54,7.3,6.45,14.12,9.93,21.56-2.39-.18-2.8-1.81-3.56-2.89-9.94-14.11-23.84-20.8-40.77-21.67-17.49-.9-34.48,2.78-51.3,6.76-26.59,6.28-52.49,5.75-77.59-5.89-20.92-9.7-37.25-24.28-47.27-45.35C1585.29,718.21,1584,716.89,1584.74,714.62Z"/><path class="cls-2" d="M784.71,716.37c6.17-4.35,12.47-7.73,17.52-13,3.95-4.1,7.12-8.28,8.44-14.26,1.21-5.47,5.71-9.79,6.56-15.89a266.08,266.08,0,0,0,2-33.84c.11-11.64.47-23.32,2.9-34.75,6.79-32.09,22.74-57.68,52.78-72.94a72.26,72.26,0,0,1,22.52-7.22c-6.16,4.85-11.3,8.67-16.18,12.79-22.18,18.73-34.18,42.88-38,71.42-1.8,13.44-.87,26.92-1,40.39a126.19,126.19,0,0,1-3.05,28.21c-.35,1.45-.85,2.89-.38,4.41,1.75,5.66-.7,9.87-5.06,13a57.48,57.48,0,0,0-8.5,7.6,27.88,27.88,0,0,1-16.28,8.9C800.81,712.5,792.79,714.61,784.71,716.37Z"/><path class="cls-2" d="M147,25.07c.84-3.66,1.76-7.29,2.51-11,2.35-11.57-.62-22.1-6.59-31.95C135.41-30.2,124.88-40,115-50.35,102.79-63.18,93.17-77.56,88-94.64c-7.18-23.46-5.29-46,7.28-67.31A18.21,18.21,0,0,1,96.6-164c.15-.2.57-.19,1.39-.42-.52,3.76-1,7.3-1.49,10.84-4,30.17,4.57,56.48,24,79.65,10.07,12,22.57,21.7,32,34.25,1.24,1.64,2.61,1.5,4.39,1.16,11.31-2.17,21,1.67,29.53,8.7,2.83,2.32,5.19,5.63,3.64,9.64s-5.25,4.7-9.08,4.91a35.23,35.23,0,0,1-13.73-2.08c-2.68-.93-3.79,0-3.59,2.74.1,1.32.32,2.65.35,4,.12,6-.09,11.85-3.84,17.13-4.38,6.16-8.28,12.67-12.39,19Z"/><path class="cls-2" d="M668.25,343.17l-2.07-2.07c-.34-.76-.64-1.54-1-2.26-4.1-7.61-3.64-13.61,1.45-18.76s14.49-6.66,20.87-3.05c3.69,2.09,8,3.53,10.17,7.71,1,2,2.29,1.07,3.67.18,7.16-4.63,14.47-4.3,21.75-.31,7.88,4.32,10.13,11.66,6.43,19.9-1.61,3.6-2.69,7.69,1.23,10.34,10.72,7.28,11.25,24-3.56,33.25-11.87,7.41-29.9,2.43-31-14.48a5,5,0,0,0-3.49-4.81c-8.1-3.36-13.55-9-14.57-18.06-.47-4.18-4.65-3.76-6.86-5.77A17.79,17.79,0,0,0,668.25,343.17Z"/><path class="cls-2" d="M240.8,141.05c-.35,8,1.93,11.49,9.41,14.37,4.54,1.74,8.83,4,12.25,7.5,6.51,6.73,4.75,13.88-4.15,16.83-8.37,2.78-16.53,1.07-24.37-1.93a16.14,16.14,0,0,0-11-.69c-14.79,4.14-27.44-4-30.29-19.19a11.27,11.27,0,0,0-1.46-4.68c-4.76-7-2.78-13.52,5.11-16.64,2.28-.91,4.84-1.11,7.25-1.71,2.63-.67,3.85-2,1.87-4.58a15.81,15.81,0,0,1-1.54-2.56c-3.27-6.72,0-12.18,7.49-11.24,12.17,1.53,21.9,7.48,28.26,18.26A8.91,8.91,0,0,1,240.8,141.05Z"/><path class="cls-2" d="M1458.27,511.18c-4.51.58-9.1-2.46-13.6-2.3s-7,5.92-11.58,7.89c-12,5.18-26.16.63-32.25-10.8a23.88,23.88,0,0,1,8.22-31.53c11.38-7.22,26.23-4.75,33.57,6.37,3,4.54,5.35,6.16,10.95,4.66a28.74,28.74,0,0,1,19.06,1.67c4.44,2,8.33,4.74,8.7,10s-3.3,8.1-7.3,10.43A28.11,28.11,0,0,1,1458.27,511.18Z"/><path class="cls-2" d="M956.28,489a66.16,66.16,0,0,1,28.24-11.64c29.66-4.91,53.46,5.6,73.14,27.71,8.69,9.76,14.4,21.06,20.16,32.49,1.77,3.53,1.5,5.42-2.89,6-4.1.59-8.13,1.73-12.17,2.7-2.72.65-4.28.12-5-3-3.11-14.74-11.55-26.7-20.49-38.36-2.23-2.91-3.93-3.22-7.15-.5-9.73,8.2-21,9.72-32.76,5.07-10.3-4.07-12.1-13-4.88-21.55a2.62,2.62,0,0,0,1-2.73C981,484.53,968.83,488.23,956.28,489Z"/><path class="cls-2" d="M540.19,697c-2.66,0-5.33.25-8,.09-10-.59-15.76-9.25-12.54-18.7,1.41-4.13,3.83-7.26,9.88-12.78-16.36-5.44-22.91-12.1-22.22-22.57.61-9.09,8-17,17.81-19.06,10.81-2.27,21.68,2.6,26.26,11.77,4.42,8.86,2.1,16.88-7.39,25.44.54,1.33,1.91,1.07,2.9,1.39,10.49,3.28,14.06,12.45,8.58,22.06-2.92,5.11-7.83,8-12.32,11.46Z"/><path class="cls-2" d="M44.59,776.61a16,16,0,0,1,11.56,3.71c3.34,2.84,6.83,3.45,11,3.37,8.53-.15,15.54,3.14,20.37,10.4a21.84,21.84,0,0,1-4,28.83c-13.09,11.27-31.61,7.83-39.69-7.47a9.29,9.29,0,0,0-4.51-4.35,21.14,21.14,0,0,1-10.73-10.67C23.21,788.33,30.8,776.63,44.59,776.61Z"/><path class="cls-2" d="M1069.17,388.29c-10.31,0-14.2-2.73-16.22-10.56-.63-2.45-2.22-2.94-4.19-3.57-8.07-2.56-10.9-6.32-10.68-14.59a6.46,6.46,0,0,0-2.21-5.18c-6.3-6.4-7.8-13.93-4.27-20.37s12.32-9.86,20.41-8.13c9,1.93,15.56,6.61,18,15.87a10.14,10.14,0,0,0,2.84,4.58c1.94,2,3.42,4.33,3.19,7.08-.35,4.39,1.76,5.42,5.7,6.12,10.68,1.87,13.84,10.85,6.83,19.2A26.9,26.9,0,0,1,1069.17,388.29Z"/><path class="cls-2" d="M454.12,277.25c-4.3-.4-8.57-1.13-12.33-3.46-9.25-5.74-11-16.75-4.05-25.44a28.65,28.65,0,0,1,17-10.63c3-.6,4.34-2,5.07-5A21.85,21.85,0,0,1,481,216.18c6.58,0,10.68,3.26,12.2,9.56,2.71,11.2.43,15-10.89,17.61-2.13.5-3.21.77-2.37,3.49,3.61,11.62-.4,20.66-11.41,26.45A35.14,35.14,0,0,1,454.12,277.25Z"/><path class="cls-2" d="M801.12,194.21a46.86,46.86,0,0,1-22.66-6.82c-8.69-5.46-9.4-13-1.92-19.9,1.26-1.15,2.4-2.13,2.31-4.1-.18-4.12,2.12-6.9,5.45-8.86,9.37-5.53,19.12-7.51,29.4-2.57a16.53,16.53,0,0,0,5.77,1.27c6.49.65,11.75,3.45,15.17,9.16,4.13,6.9,2.05,14.59-5.14,18.11a16.84,16.84,0,0,0-6.34,5.28C819,191.34,810.84,194.29,801.12,194.21Z"/><path class="cls-2" d="M770.37,339.07c15.26.06,28,12.12,27.82,26.29-.19,13.55-12.57,25-26.86,24.81-15-.18-27.69-12-27.82-25.88S755.55,339,770.37,339.07Z"/><path class="cls-2" d="M1539,162.82c.58,4,4.65,9.29,7.93,14.9a9.79,9.79,0,0,0,1.77,1.75c6.36,6.41,8,14,4.38,20.31-3.52,6.12-12.12,9-20.3,6.7-8.79-2.45-15.08-7.63-17.61-16.65a12.29,12.29,0,0,0-3.51-5.28c-5-5.14-8.08-10.92-6-18.45.42-1.53.06-3.29-.05-4.93-.72-10.6,6-18.7,15.87-19C1531.94,141.75,1539.13,149.07,1539,162.82Z"/><path class="cls-2" d="M1536.19,663.6c-1.55.29-2.08-.93-2.72-1.79-13.85-18.71-22.4-39.38-21.57-63,.84-23.86,11.15-43.43,28.67-59.43a148,148,0,0,1,18.69-14.12c2.49-1.64,3.9-1.38,5.43,1.43,7.74,14.14,7.15,15.5-6,24.85-19.89,14.15-32.45,33.25-35.43,57.75-1.18,9.67,1.64,19.15,4.67,28.35,2.35,7.11,5,14.13,7.36,21.22C1535.8,660.37,1536.87,661.84,1536.19,663.6Z"/><path class="cls-2" d="M1361.72,82.72c.08-6.46,2.51-11.73,8.35-14.84,2.62-1.39,2.86-3,2.34-5.62-2-10.47,4.36-20.3,14.87-23.23a20.36,20.36,0,0,1,24.42,12.22,19.7,19.7,0,0,1-10.15,25.19c-3.49,1.61-4.82,3.19-4.92,7.22-.25,9.65-8.76,17.06-18.25,16.72S1361.7,92.51,1361.72,82.72Z"/><path class="cls-2" d="M616.31,8.69c1-2.74-.31-3.94-3.47-4.63C607.06,2.8,600.83,2,599-5.43c-.43-1.75-2.6-.93-4-1.07-9.09-1-17.7-3.33-25-9-2.85-2.19-6.5-4.71-5.12-8.89,1.46-4.45,6-4.3,9.79-4.13a47.17,47.17,0,0,1,26.78,9.79c1.62,1.22,3.49,2.8,3.45,4.71-.08,4.74,2.59,4.71,6.13,4.8s7.14.42,10.15,2.28c3.63,2.24,7,2,10.86.73,6.43-2.16,12.85-1.26,19,1.54,12,5.52,13.69,18.07,3.56,26.48-9.43,7.84-25.65,7.15-33.91-1.43A14.29,14.29,0,0,1,616.31,8.69Z"/><path class="cls-2" d="M490.58,412c.06,14.35-10.82,25.25-25.21,25.23-14.12,0-26-11.64-26.08-25.49a25.52,25.52,0,0,1,24.93-25.45C478.36,386.05,490.53,397.92,490.58,412Z"/><path class="cls-2" d="M1705.65,145.37c-3.18-.81-5.41.86-7.07,5.38-3,8.25-10.56,10.9-18.47,11.17-7.59.27-14.48-2.36-18.55-9.5-3.81-6.69-1.47-14.81,5.5-19.59a22.31,22.31,0,0,1,14.59-4.12c2.51.19,4.07-.13,5-2.73,5.2-15,29.73-14.81,38.14-4.92,5.87,6.92,4.46,15.59-3.55,20.89C1716.91,144.81,1712.1,145.85,1705.65,145.37Z"/><path class="cls-2" d="M1462,731.19c-12.18-1.48-23.06-5.68-29.55-17.25-1.4-2.51-3.27-2.77-5.64-3.13-12-1.83-18.3-13.65-12.52-23.24,3.2-5.31,8-8,14.17-7.65,6.54.34,11.58,3.69,13.89,9.76,1.5,4,3.63,5.12,7.62,5.44a35.81,35.81,0,0,1,22.79,10.16c4.78,4.7,8.67,10.15,5.74,17.28S1468.94,730.53,1462,731.19Z"/><path class="cls-2" d="M1323.08,610a31.43,31.43,0,0,1,12.15,3.09c5.62,2.67,7.15,5.22,6.26,11.4-.37,2.57,1,3.53,2.54,4.83,6.31,5.22,9.17,11.85,6.79,19.89s-8,12.58-16.15,13.64S1320,661,1315.45,654a16.34,16.34,0,0,1-2.25-13.84c1.22-4.14-.13-5.16-3.86-5.7a19.94,19.94,0,0,1-6.94-2.62c-6.75-3.87-7.22-10.41-1.28-15.44C1305.34,612.81,1314.29,610,1323.08,610Z"/><path class="cls-2" d="M571.92,844c-8,0-14.58-2.11-20.21-6.64-8.46-6.8-6.88-16.79,3.21-20.73,2-.78,4.27-1.77,6.25-1.5,7.28,1,13.42-2.08,20-4.35a39.56,39.56,0,0,1,28.33.73c4.22,1.69,7.84,4.34,8.32,9.12s-3,7.84-6.82,10.19c-5.69,3.52-12.12,4.48-18.61,5-2,.18-3.93.39-5.4,2.07C582.76,842.65,577.18,843.87,571.92,844Z"/><path class="cls-2" d="M947.94,253.8c0-13.09,9.5-22.63,22.62-22.68S995,242,994.79,254.54a23.43,23.43,0,0,1-46.85-.74Z"/><path class="cls-2" d="M1204,613.82c6.55,3.36,14.34-.38,22.29-1.29A29.67,29.67,0,0,1,1241.4,615c2.83,1.19,5.43,3,5.5,6.47.07,3.29-2.49,4.89-5,6.25a23.58,23.58,0,0,1-8.56,2.6c-2.72.31-3.52,1.48-3,4.37,1.74,9.64-3.86,17-13.64,17.19-12,.29-21.83-4.65-27.87-15.25C1181.67,624.06,1188,613.75,1204,613.82Z"/><path class="cls-2" d="M.49,142.53c0-11.84,2.69-15.88,13.1-19.34,11.52-3.82,22.39-2.76,31.5,6,7.32,7.07,7.26,16.6.21,24-10.1,10.53-30.27,11-41,1.12C.32,150.69.2,146.2.49,142.53Z"/><path class="cls-2" d="M310.5,109.25a25,25,0,0,1,17.83,5.56c11,8.81,10.11,22.91-1.87,30.46-10.26,6.47-25.35,5.41-34.66-2.44a17.67,17.67,0,0,1,0-27.17A24.93,24.93,0,0,1,310.5,109.25Z"/><path class="cls-2" d="M1477.85,186.43A27.13,27.13,0,0,1,1458,177c-5-5.76-7.21-12.34-4.66-19.88,2.48-7.35,8.05-11.27,15.34-12.78,9.27-1.92,17.5.61,24.52,6.83s9.34,15.08,6.36,22.54C1496.48,181.45,1488.53,186.41,1477.85,186.43Z"/><path class="cls-2" d="M840.29,702.76c6.56.31,14.76,2.85,20.35,10.72s4.19,17.43-3.26,23.58c-10.59,8.73-28.78,7.79-38.43-2-8.09-8.22-7.06-20.55,2.34-27.27C826.17,704.3,831.66,702.68,840.29,702.76Z"/><path class="cls-2" d="M657.43,780.58c-.08,11.71-10.51,21.27-23.19,21.25-13,0-23.3-9.66-23.2-21.72s10.21-21.21,23.12-21.26C646.77,758.79,657.52,768.83,657.43,780.58Z"/><path class="cls-2" d="M313.48,732.84c-5.7-.67-12.06-2.06-17.33-6.18-2.74-2.14-4.26-2.38-6.83.5-4.64,5.2-10.95,6.05-17.44,4.24-7.46-2.07-11.81-9-10.42-15.89s9.43-12.3,17.09-11.54c4.47.45,7.93,4.6,11.77,4.53,3.67-.07,7.15-3.63,11.53-3.82a33.75,33.75,0,0,1,19.1,4.56c6.8,4,10.48,10.3,9,15.2S321.83,733,313.48,732.84Z"/><path class="cls-2" d="M265.42,18.35c-5.06-.33-10-1.56-14.3-4.77C244.89,8.92,242.15,2,244-4.27a19.19,19.19,0,0,1,16.49-13.3,23.76,23.76,0,0,1,14.09,2.34c2.9,1.57,5.53,1.49,8.59.6,5.45-1.58,11-2.67,16.7-.91,6,1.85,7.33,6.28,3.28,11-3.59,4.21-8.46,6.41-13.54,8.11a9.83,9.83,0,0,0-6.06,4.67C279.64,15.13,273.14,17.74,265.42,18.35Z"/><path class="cls-2" d="M1403.74,535.9c8.26.62,16.54,3.52,22.68,10.94,6.95,8.39,5.23,18.6-4,24.31-12.55,7.72-32.61,2.8-40.15-9.85-5.07-8.51-1.7-18.39,7.85-22.77A30.73,30.73,0,0,1,1403.74,535.9Z"/><path class="cls-2" d="M1327.08,796.76c8.91,0,16.21,3.38,21.33,10.73,7.32,10.5,3.66,23-8.05,28.18-11.14,4.9-25.7.55-32.26-9.63-8-12.39-.52-27.51,14.5-29.26A39.37,39.37,0,0,1,1327.08,796.76Z"/><path class="cls-2" d="M365.2,312.13c12.57-.11,23,9.63,23,21.49,0,11.34-10.63,21.44-22.68,21.52s-22.62-9.9-22.72-21.38C342.73,322.09,352.92,312.24,365.2,312.13Z"/><path class="cls-2" d="M714.2,444.61c-9.21-.22-16.19-6.73-16.6-15.52-.1-2.19-1.14-2.77-2.67-3.57-12.44-6.48-13.17-20.24-1.47-28.23,6.31-4.29,13.14-6.34,20.75-3.93,11.08,3.51,14.55,15.41,7.12,24.31a7.47,7.47,0,0,1-1.35,1.45c-4.32,3-5.5,5.53-.21,9.2a9,9,0,0,1,3.39,11.09C721.5,443.61,717.83,444.51,714.2,444.61Z"/><path class="cls-2" d="M79.8,377.05c7.24.49,15,2.56,20.08,10,4,5.77,3.49,12.06-1,17.46-9.43,11.29-29.39,13.1-40.72,3.69-8.72-7.24-7.82-19.11,2.08-25.69C65.75,378.79,72,377.1,79.8,377.05Z"/><path class="cls-2" d="M442.5,178.39c-4.1,0-7.65-.73-10.26-3.17-3-2.81-5.17-2.16-8.06.16a31.48,31.48,0,0,1-17,6.63c-4.39.41-9.11.26-11.29-4.39-2-4.36.9-7.64,3.93-10.4,7-6.38,15.24-9.37,24.73-7.88,2.39.38,3.58-.26,4.86-2.2A22.5,22.5,0,0,1,445.33,147c7.44-1.17,14.22,1.75,17.09,7.44,2.7,5.38.65,13.17-4.9,18A23.91,23.91,0,0,1,442.5,178.39Z"/><path class="cls-2" d="M1092.63,733.12c-7.76.06-13.9-2-18.9-7-8-7.94-7.68-18.78.68-26.3,10.56-9.5,29-7.4,37.09,4.22,7.85,11.29,0,26.61-14.73,28.76A40.85,40.85,0,0,1,1092.63,733.12Z"/><path class="cls-2" d="M217.64,760.92c-14.44.13-22.14-12.17-15.67-25,5.06-10,16.74-16.77,27.85-16.07,11.69.73,18.47,10.88,14.65,21.91C240.77,752.42,229,760.82,217.64,760.92Z"/><path class="cls-2" d="M1129,176.58c.07-11.62,10.45-21.41,22.58-21.3,11.48.11,21.31,9.89,21.06,21-.27,11.47-10.4,21-22.35,21.08C1138.79,197.37,1128.87,187.72,1129,176.58Z"/><path class="cls-2" d="M613.61,596.48c-3.14-.19-8.73,0-13.55-3.24-1.63-1.09-2.31-.87-3.47.76-4.87,6.84-11.18,8.73-19.09,5.9a22,22,0,0,1-13-11.63c-3.83-8.22,1.12-16.64,10.13-17.44C584,570,591.09,574,595.75,582c1.56,2.67,2.35,2.93,5.14,1.35,10.18-5.75,21.1-6.63,32.27-3.31,3,.89,6.4,2.07,6.5,6,.1,3.71-3,5.36-5.81,6.78C628.22,595.58,622.14,596.38,613.61,596.48Z"/><path class="cls-2" d="M249.43,456.27c-.14-13.16,10-21.31,23.74-19,3.43.58,6.81,1.5,10.21,2.28a8.64,8.64,0,0,1,6.73,6,36.86,36.86,0,0,0,2,4.56c5.94,12.05.14,23.54-13,25.81-9.72,1.68-23.11-4.2-28.37-12.43C249.27,461.27,249.43,458.77,249.43,456.27Z"/><path class="cls-2" d="M258.43,283.1a99.75,99.75,0,0,0,12.56.22,10.29,10.29,0,0,1,11.49,9.28c.34,2.55,1.52,3.69,3.7,4.66,5.37,2.37,10.31,5.4,13.52,10.57,1.34,2.17,2.52,4.47.87,7s-4.1,2.77-6.65,2.49a29.06,29.06,0,0,1-17.53-8.68c-2.49-2.49-4.41-3-7.75-1.47-8.86,3.93-18,4.48-27,.24-9.62-4.54-10.39-12.47-1.87-18.87C245.31,284.32,251.89,283.44,258.43,283.1Z"/><path class="cls-2" d="M1324,113.58c-16.06,0-23.68-13.17-15.7-27,5.62-9.77,19.23-14.89,29.91-11.26s14.91,15.37,8.61,25.63C1341.66,109.28,1333.92,113.56,1324,113.58Z"/><path class="cls-2" d="M664,650.26a23.66,23.66,0,0,1-8.84-1.53,14.73,14.73,0,0,1-8.38-19.65c4.91-12.27,21.54-19.34,33.8-14.37,5.55,2.25,8.88,6.33,9.58,12.29.28,2.44.74,4.31,3.21,5.62,3.38,1.79,2.94,4.44.64,7a7.69,7.69,0,0,1-2.33,1.85C682.83,645.65,673.82,649.31,664,650.26Z"/><path class="cls-2" d="M589.94,307a71.66,71.66,0,0,1,20.76-18.43c25.16-14.65,49.35-10.76,73,3.7a178.51,178.51,0,0,1,16.6,12c3,2.36,2.64,4.05,0,6.29-9.08,7.72-8.82,7.53-17.23-.83a58.43,58.43,0,0,0-41-17.62c-17.14-.5-32.14,5.47-46.7,13.44C594.11,306.17,593,307.24,589.94,307Z"/><path class="cls-2" d="M554.52,54.9c.06,13.8-9.9,23.21-21.54,22.34a46.13,46.13,0,0,0-10.89,0,11.6,11.6,0,0,1-7.65-1.77c-2.1-1.23-2.9-3.2-.81-4.84,2.51-2,1.71-3.72.77-6a19.12,19.12,0,0,1,4.4-21.17A21.51,21.51,0,0,1,542,39.16C549.94,42.55,554.18,48.55,554.52,54.9Z"/><path class="cls-2" d="M736.89,743.85c-9.65-.58-17.75-4.31-23.32-12.42-7.18-10.46-2.25-22.75,10.14-25.44,9.86-2.15,18.46.69,25.69,7.53,6.24,5.89,8.29,13.5,5.44,19.84C751.39,741,744.62,743.28,736.89,743.85Z"/><path class="cls-2" d="M1380.21,258.08a25.09,25.09,0,0,1,14.2,3.24c6.38,3.7,7.91,10,4,16.16-7.59,12.17-31.94,17.87-44.09,10.32-7-4.34-8.28-10.67-3.61-17.43C1355.87,263,1367.27,258.1,1380.21,258.08Z"/><path class="cls-2" d="M346.21,295.45a20.61,20.61,0,0,1-13.65-4.77,17.08,17.08,0,0,1-3-24.05c7.9-10.17,23.86-12.17,34-4.25,8.9,6.93,8.88,19.49-.11,27.3C358.76,293.79,353.15,295.54,346.21,295.45Z"/><path class="cls-2" d="M1298.15,492.85c11,0,18.62,4.56,20.49,12.18,1.77,7.19-2.84,15.2-11.76,20-7.16,3.84-14.71,5-22.65,2.63-6-1.77-10.41-5.37-12-11.54s1.11-11.2,5.44-15.2C1283.52,495.54,1290.45,492.54,1298.15,492.85Z"/><path class="cls-2" d="M1358.07,222c.07,10.13-9.51,18.62-21,18.14-7.19-.3-13.6-2.84-18.52-8.46-7.77-8.88-5.86-20.79,4.35-26.78C1337.32,196.47,1358,206.52,1358.07,222Z"/><path class="cls-2" d="M829.93,51.19c11.54.07,20.45,8.62,20.33,19.51-.12,11.46-9.46,20-21.8,19.9C817,90.53,808,81.87,808.11,71.06,808.23,59.61,817.57,51.11,829.93,51.19Z"/><path class="cls-2" d="M647,226.52c-8.5-.07-14.6-2.52-18-9.41s-1.2-13.43,3.27-19c6.17-7.72,14.53-10.95,24.33-9.78,12.14,1.44,18.39,13.51,12.47,24.22C664,221.54,656.13,226.13,647,226.52Z"/><path class="cls-2" d="M1192.43,251.32c-9.92-.91-18.7-3.85-25.38-11.43-7.15-8.11-4.44-17.73,5.78-21.12,5.94-2,11.77-1.53,17.63.1,9,2.5,16.45,7.89,23.37,13.8,4.9,4.18,4,7.44-1.74,9.86a7.64,7.64,0,0,0-3.25,2.18C1204.55,250,1198.41,250.68,1192.43,251.32Z"/><path class="cls-2" d="M1160.11,316.92c12.71,1.07,23.16,6.35,30.67,16.89,2.91,4.09,4.6,8.65,2,13.53-2.74,5.22-7.87,6.78-13.14,6.4-12.07-.85-22.47-5.57-30.21-15.21-3.56-4.45-6.16-9.41-3.46-15.12S1154.31,316.86,1160.11,316.92Z"/><path class="cls-2" d="M1256.72,407.4c-8,0-14.17-2-19.16-7-6.66-6.72-6.3-16.7.77-23,9.12-8.13,25.57-7.78,34.39.73,8,7.75,7,19-2.37,25.16A23,23,0,0,1,1256.72,407.4Z"/><path class="cls-2" d="M1250.37,156c11.88,0,20.4,7.16,20.84,16.74.49,10.54-7.59,19.43-19,20.61-7.3.75-14-.9-19-6.63-4.38-5-5.74-10.85-3.25-17.19,3-7.61,8.8-11.89,16.76-13.29A25.91,25.91,0,0,1,1250.37,156Z"/><path class="cls-2" d="M514.53,544.3c-8.44-.09-14.3-3.1-19.59-7.3-2-1.63-3.9-3-6.67-2.38a5.55,5.55,0,0,1-2-.09c-3.3-.45-7-.59-8.42-4.24-1.56-3.92,1.1-6.66,3.61-9.1,9.11-8.84,20.37-12.9,32.77-13.89,3.59-.29,7.66.25,9.57,4,2,4-.6,7-3.2,9.67-1.69,1.71-1.71,3-.06,4.57a9.85,9.85,0,0,1,1.26,1.54c2.57,3.66,4.57,7.52,2.3,12S517.62,544.4,514.53,544.3Z"/><path class="cls-2" d="M175.77,628.71c11.42-.07,19.86,7.69,20,18.38.14,11-9,19.85-20.58,19.9-10.76,0-19.77-8.54-19.83-18.88C155.3,637.31,164.27,628.79,175.77,628.71Z"/><path class="cls-2" d="M257.72,253.46a38,38,0,0,1-17.59-3.52c-6-2.82-6.65-5.85-2.37-11,1.27-1.51,1-2.39,0-3.84-6.81-9.74-3.51-17.2,8.43-18.41a20,20,0,0,1,17.88,6.94c1.43,1.65,2.84,3.68,2.4,5.84-1,5,1.78,6.39,5.78,7.09a11.17,11.17,0,0,1,2.8,1.05c2.77,1.33,5.46,2.89,5.55,6.4s-2.67,5.16-5.47,6.38A40.83,40.83,0,0,1,257.72,253.46Z"/><path class="cls-2" d="M887.42,515c-1.79,0-2.29,0-2.79,0-10.29-.82-18-7.19-18.33-15.14-.34-8.31,8.2-17,18.44-17.67,5.92-.38,11.45-.91,16.28-4.62a5.45,5.45,0,0,1,1.83-.78c2.53-.69,5.74-2.15,7.26.63,1.63,3-1.46,4.81-3.68,6.07-3,1.68-3.39,2.94-1.23,5.95,4.49,6.26,3.65,12.38-1.69,18.07A24.44,24.44,0,0,1,887.42,515Z"/><path class="cls-2" d="M901.65,298.35a21.68,21.68,0,0,1-11.44-2.56c-6-3.25-7.83-9.07-4.79-15.23,6-12.13,28.43-18.43,39.88-11.18,6.62,4.18,7.52,11.61,2.18,18C921.79,294.16,912.28,298.3,901.65,298.35Z"/><path class="cls-2" d="M560.54,142.52c-11.47,0-19.41-7.51-19.33-18.24.07-10,9.07-18.64,19.61-18.71,10.7-.07,19.53,8.25,19.58,18.48C580.46,134.72,572.06,142.54,560.54,142.52Z"/><path class="cls-2" d="M188.36,530.2c-7.47-.34-15.9-4.09-22.77-11.31-5-5.26-6.78-11.26-4.31-15.8,3.25-6,9.17-7.15,15.07-6.72,9.39.67,17.79,4.25,24.33,11.3,4,4.26,7.32,9.11,4.76,15.22C202.79,529.2,197,530.31,188.36,530.2Z"/><path class="cls-2" d="M386.08,449.2c-8-.28-16.23-4.31-21.32-13.36-4.31-7.66-1.51-15.37,6.42-19,11.12-5.17,27.84,1,32.94,12.17C409,439.62,401.48,449.23,386.08,449.2Z"/><path class="cls-2" d="M917.91,729c-11.07-.1-20.11-8.85-20-19.34.14-9.74,8.89-17.81,19.21-17.71,10.59.11,20,9,20.05,19S928.56,729.14,917.91,729Z"/><path class="cls-2" d="M716,523.67a13.85,13.85,0,0,1,2.4-7.9c6.19-9.89,21.19-13.76,31.37-8.1,8.07,4.48,10.5,12.93,6,20.79-6.37,11.07-23.42,14.75-33.69,7.25A13.9,13.9,0,0,1,716,523.67Z"/><path class="cls-2" d="M540.19,697l3-.9c10.34-1.42,19.85.59,28.32,6.88,6.51,4.84,9.79,11.76,8,16.93-1.89,5.41-7.6,8.32-16.2,8.17a34.62,34.62,0,0,1-23.15-9.15C532.12,711.72,532.25,703.88,540.19,697Z"/><path class="cls-2" d="M256.81,575.94a21.68,21.68,0,0,1-8.56-2.13c-5.81-3-7.79-8.14-5.51-14.2,4.64-12.39,24.47-20.75,36.6-15.43,6.71,2.94,8.9,9.42,5.48,16.15C280.48,568.84,268,576,256.81,575.94Z"/><path class="cls-2" d="M1742.54,379.18c-7.74-.62-16-2.68-22.17-9.69-5.49-6.25-4.3-13.39,2.84-17.64,11.2-6.67,30.26-3,38.14,7.4,4.07,5.35,2.8,12.29-2.93,16C1754.65,377.73,1749,379.21,1742.54,379.18Z"/><path class="cls-2" d="M1194,795.73c-.15,10.18-10.32,19.24-21.27,19-9.65-.24-17.72-8-17.67-16.89.06-10,10.56-19.28,21.37-19C1186.18,779.14,1194.18,786.82,1194,795.73Z"/><path class="cls-2" d="M1826.4,842.84c-10.21.13-18.58-7.77-18.57-17.53s8.82-18.39,19.15-18.49,18.61,7.83,18.6,17.52S1836.67,842.72,1826.4,842.84Z"/><path class="cls-2" d="M1746,808a24.47,24.47,0,0,1-3.06-.23c-6.72-1.09-12.06-5.71-13.17-11.31-1-5.2,2.25-11.37,8.18-14.75,7.15-4.07,14.71-5.2,22.44-1.79a7.26,7.26,0,0,0,6.52,0c4.27-1.86,8.81-3.08,13.55-1.61,1.48.45,2.89,1.17,3,2.91.1,1.47-1,2.41-2.11,3.17a17.15,17.15,0,0,1-8.94,2.72c-1.66.09-3.12.18-3.56,2.53C1766.48,802.77,1759.92,808.16,1746,808Z"/><path class="cls-2" d="M1105.3,424c9.66.06,17.79,8,17.67,17.34-.13,9.9-9,18.49-19.2,18.6-9.28.1-17.76-8.27-17.7-17.45C1086.14,432.62,1095.18,423.93,1105.3,424Z"/><path class="cls-2" d="M504.84,822c-10,0-18.12-7.6-18.1-16.87,0-9.76,8.64-18,18.95-18.13,9.62-.12,18.54,8.28,18.47,17.38C524.09,814.12,515.41,822,504.84,822Z"/><path class="cls-2" d="M1873.38,376.05c10.67,0,20.19,8.5,20.19,18.08,0,8.52-8.19,15.93-17.72,16-10.59.12-20.22-8.39-20.31-17.94C1855.46,383.06,1863.16,376.07,1873.38,376.05Z"/><path class="cls-2" d="M1394.72,200.11c9.7,1,18.88,5.34,25.2,14.64,2.58,3.8,4.33,8.06,1.82,12.6-2.68,4.85-7.55,6.1-12.43,5.72-10.6-.82-19.42-5.41-25.75-14.16-2.86-3.95-4.47-8.32-2-13S1388.59,200.22,1394.72,200.11Z"/><path class="cls-2" d="M1119.4,417.15c-9.67-.77-17.86-2.62-24.64-8.4-3.31-2.83-5.65-6.22-4.75-10.86s4.42-6.63,8.38-7.65c12.21-3.15,23.59-.95,33.27,7.12,7.82,6.52,5.74,15.08-4,18.09A75.17,75.17,0,0,1,1119.4,417.15Z"/><path class="cls-2" d="M454,729.05a22.38,22.38,0,0,1-17.77-10.81c-5.54-8.88-1.71-18.74,8.31-21.79,9.81-3,22.67,3.29,26.4,12.87C475,719.78,467.93,729.06,454,729.05Z"/><path class="cls-2" d="M329.54,255.68c0,9.05-7.8,16.52-17.17,16.49-10.26,0-19.17-8.73-19-18.56.12-8.82,7.68-16.08,16.91-16.24C320.39,237.2,329.55,245.89,329.54,255.68Z"/><path class="cls-2" d="M887.52,50.82c10,0,19.13,8.94,19.1,18.65,0,8.91-7.25,15.89-16.45,15.91-10.25,0-19.37-9-19.24-18.93C871.06,57.45,878.14,50.78,887.52,50.82Z"/><path class="cls-2" d="M1459.49,615.66c5.92.15,10.79.57,12.93,5.66s-.48,9.06-3.78,12.59c-7.43,7.94-16.77,11.82-27.51,12.07-4.73.11-9.53-.91-11.67-6-2-4.87.61-8.74,3.73-12.1A37.28,37.28,0,0,1,1459.49,615.66Z"/><path class="cls-2" d="M1711.12,671.1c-6.85.08-12.54-1.55-17.5-5.26-8.12-6.07-7.53-15.31,1.21-20.29s23.59-3.18,30.86,3.85c6.36,6.14,5.39,14.2-2.29,18.71A21.62,21.62,0,0,1,1711.12,671.1Z"/><path class="cls-2" d="M1456.83,237.77c-5.27-.18-10.23-1.22-14.25-5-6.08-5.71-6.09-13.09,0-18.75,7.2-6.68,20.72-7.77,28.88-2.33s8.64,15.16.79,21.3A25,25,0,0,1,1456.83,237.77Z"/><path class="cls-2" d="M687.9,673c9.82.34,17.64,8,17.41,17s-8.1,16.08-17.82,15.9-18-8.11-17.81-16.75C669.89,680.06,678.3,672.61,687.9,673Z"/><path class="cls-2" d="M1101.33,891.93a24.31,24.31,0,0,1-11.18-2.25c-5.65-2.85-6.68-7.85-2.77-12.73,7.46-9.34,28.85-14,39.6-8.61,5.55,2.77,6.61,7.91,2.31,12.67C1121.82,889.29,1111.77,891.18,1101.33,891.93Z"/><path class="cls-2" d="M1447.12,427.21c-6,.15-10.76-2.36-13.74-7.44s-2.14-10.23.76-15.12c4.62-7.81,14.33-11.89,22.63-9.59a14,14,0,0,1,9.79,18.31C1464,421.26,1455.74,427.12,1447.12,427.21Z"/><path class="cls-2" d="M1369.49,912c-9.37,0-15.74-5.69-15.81-14.24-.07-10,8.58-18.14,19.25-18.17,9.12,0,15.81,6,16,14.32C1389.13,903.61,1380.17,912,1369.49,912Z"/><path class="cls-2" d="M1403.27,610.1c-7.23,0-13.06-1.57-17.82-6-5.16-4.8-5.1-11.44,0-16.21,8.08-7.56,25.9-7.19,33.57.7,5.34,5.48,4.93,12.09-1.16,16.77A23.13,23.13,0,0,1,1403.27,610.1Z"/><path class="cls-2" d="M548.26,774c-6.28,0-11.67-2-14.25-8s-.68-11.58,3.84-15.93c6.38-6.13,14-9,22.83-6.27,9.55,2.93,12.5,12.68,6.51,20.71A24.21,24.21,0,0,1,548.26,774Z"/><path class="cls-2" d="M1008.57,748.88a22.62,22.62,0,0,1-9.39-1.64c-7.67-3.25-10-11.86-5.18-18.57,5.81-8,18-11.56,27.26-7.9,8.77,3.48,11,12.73,4.7,19.81A24.51,24.51,0,0,1,1008.57,748.88Z"/><path class="cls-2" d="M1553.05,760.13c-5.23-.26-11.13,0-13-6-1.81-5.81,2.34-9.75,6.72-12.73,8.89-6,18.56-9.65,29.55-7.66,3.5.63,6.89,1.88,8,5.79,1.22,4.1-1.11,7.25-3.74,9.72A39.88,39.88,0,0,1,1553.05,760.13Z"/><path class="cls-2" d="M712.13,297.38a29,29,0,0,1-19.43-8.32c-3.88-3.86-6.61-8.49-4.44-14.31,1.7-4.56,7.32-7.67,13.67-7.28,7.29.44,14,2.78,19.3,8.1,4.12,4.12,6.86,8.89,4.42,14.73S717.6,297.11,712.13,297.38Z"/><path class="cls-2" d="M1051.35,190.33c-.53-.07-1.69-.17-2.83-.38-10.32-1.88-16.81-9.08-15.32-17s11.57-13.81,20.8-12.38c.33,0,.66.13,1,.2,9.63,1.85,15.76,8.2,15.15,15.69C1069.5,184.23,1061.47,190.35,1051.35,190.33Z"/><path class="cls-2" d="M865.93,444.3c-8.32-.57-15.28-3.14-20.61-9.32-5.82-6.74-3.8-14.75,4.55-17.94s21.66.15,27.51,7c6.94,8.12,4,17-6.42,19.57A46.85,46.85,0,0,1,865.93,444.3Z"/><path class="cls-2" d="M553,179.4c6,.56,11.4,2.12,15.51,6.55,5.63,6.05,4.86,14.21-1.77,19.14-7.88,5.86-20.13,5-27.12-1.89-6.39-6.28-5.56-15,1.86-20.1C545,180.65,549.1,179.92,553,179.4Z"/><path class="cls-2" d="M133.2,582.2c-6.38-.11-11.66-1.36-16.23-4.77-5.87-4.38-6.23-10.72-1-15.71,8.13-7.71,26-7.81,34.22-.18,4.47,4.15,4.69,9.62.47,14.09C145.73,580.88,139.19,581.84,133.2,582.2Z"/><path class="cls-2" d="M244.42,115.62c-9.88,0-18-6.73-17.93-14.85.09-8.29,9.21-15.44,19.11-15,9.25.43,16.94,7.29,16.89,15.06C262.43,109,254.31,115.6,244.42,115.62Z"/><path class="cls-2" d="M307.67,51.3c9.15,0,16.7,6.69,16.81,14.86.11,8.55-8.64,16.32-18.17,16.14-8.76-.17-16.06-7-16.07-15.06C290.24,58.19,297.79,51.28,307.67,51.3Z"/><path class="cls-2" d="M1792.23,601.05c-9.51.07-17.56-7.42-17.43-16.2.12-8.14,8-15.52,16.55-15.46,9.22.06,17.12,7.47,17.14,16.07C1808.52,593.88,1801.1,601,1792.23,601.05Z"/><path class="cls-2" d="M634.13,258.37A16.75,16.75,0,0,1,617,241.86a15.51,15.51,0,0,1,15.2-15.31c9.26-.14,17.87,7.85,17.92,16.63C650.21,251.32,642.84,258.3,634.13,258.37Z"/><path class="cls-2" d="M455.66,669.06c-5.26.1-10.9-.39-16-3.28s-5.46-6.87-.95-10.7c8.89-7.54,32.17-9.58,42.47-3.72,5.4,3.06,5.41,8.3-.21,11.68C473.37,667.61,464.94,669.22,455.66,669.06Z"/><path class="cls-2" d="M327.16,600.65c.1-8.92,8-16.21,17.43-16.15,9,.07,16,6.74,15.87,15.09-.11,8.67-8.86,16.55-18.12,16.31A15.27,15.27,0,0,1,327.16,600.65Z"/><path class="cls-2" d="M1716.57,680.84c4.35.14,9.46,2.37,13.73,6.36,4.88,4.57,6.29,10.77,3.9,15.81s-8.71,8.35-15.09,7.6a23.11,23.11,0,0,1-13.8-6.33c-5-4.84-6.57-10.17-4.5-15.21S1708.37,680.75,1716.57,680.84Z"/><path class="cls-2" d="M.47,358.92c0-4.16,0-8.31,0-12.47,0-3,1.61-4.07,4.38-4.14,9-.24,19,6.46,22.35,15,3.23,8.21-.58,16.33-9,19.17a20.66,20.66,0,0,1-6.89.88C2,377.27.44,375.69.43,366.41v-7.49Z"/><path class="cls-2" d="M219,593.23a9,9,0,0,1-3.09-.57c-4-2.18-8.11-2.1-12.47-1.47-3.35.48-6.77,0-8.71-3.4s-.64-6.89,1.5-9.74c4.91-6.51,11.4-10.66,19.64-11.41,6.56-.59,11.68,2.37,15.14,7.77a11.65,11.65,0,0,1,.11,12.76C228.52,591.63,224.31,593.24,219,593.23Z"/><path class="cls-2" d="M672.51,707.76c5.74.36,10.75,2,14.88,5.69s6.86,7.94,5.25,13.63-6.1,8.62-11.79,9.34a21.38,21.38,0,0,1-19-6.79c-3.82-4-5.28-9-2.78-14.28C661.75,709.74,667,708.16,672.51,707.76Z"/><path class="cls-2" d="M115.13,68.33c-10-1.37-19.95-3.89-27.4-12-5.39-5.87-3.68-11.15,4.13-13,10.22-2.49,28.35,4.12,34.6,12.62,3.47,4.7,2.27,9-3.17,11.08A21.43,21.43,0,0,1,115.13,68.33Z"/><path class="cls-2" d="M1561.29,350.94c8.74,0,15,3,19.79,8.87,5.13,6.27,3.17,13.95-4.31,17.15-8.17,3.49-21.44-.17-26.69-7.37-5.76-7.91-2.32-16.55,7.33-18.32A30.13,30.13,0,0,1,1561.29,350.94Z"/><path class="cls-2" d="M626.72,93.56a35.93,35.93,0,0,1-22.55-8c-3.19-2.55-5.85-5.78-4.83-10.24,1.06-4.66,5.1-6,9.15-6.38a35.08,35.08,0,0,1,27.23,8.47c3,2.63,5.79,5.92,4.15,10.41s-5.88,5.42-10.16,5.74C628.72,93.62,627.72,93.56,626.72,93.56Z"/><path class="cls-2" d="M94,748.14c-4.47,0-8.36-1.13-10.51-5.38s-.46-7.94,2-11.14c6.17-7.94,14.25-12.43,24.54-11.87,8.32.45,12.13,7.27,7.84,14.42C112.55,743.08,104.25,747.43,94,748.14Z"/><path class="cls-2" d="M1801.5,542.83c6.53-.06,12.58,1.56,17.74,5.65,5.93,4.71,5.42,11.14-1,15.14-8.42,5.24-25.54,3.1-32.28-4-4.34-4.6-3.67-10.08,1.65-13.54C1791.09,543.78,1795.43,542.78,1801.5,542.83Z"/><path class="cls-2" d="M424.11,463.94a16.46,16.46,0,0,1,8.22,1.62c6.93,3.58,8.62,11.06,3.85,17.18-5.26,6.76-15.81,9.87-23.86,7-8.45-3-10.92-11.35-5.44-18.43C410.59,466.56,416.78,463.9,424.11,463.94Z"/><path class="cls-2" d="M609.53,173.47a28.24,28.24,0,0,1-16.17-4.12c-6.28-4-6.36-9.81-.31-13.91,8.38-5.68,24.28-5.77,32.82-.18,6.4,4.18,6.16,10.67-.53,14.58C621,172.36,616.12,173.48,609.53,173.47Z"/><path class="cls-2" d="M846.09,138.63a24.27,24.27,0,0,1-16.29-5.28c-7.12-5.62-6.24-13.81,2.05-17.42,9.3-4,18.38-2.71,26.45,3.22,7.7,5.67,6.39,14.12-2.43,17.91A22.09,22.09,0,0,1,846.09,138.63Z"/><path class="cls-2" d="M1672.92,170.26c8.17,0,14.92,6.21,14.82,13.72-.11,8-7.94,15.18-16.78,15.34-8.46.16-15.28-6-15.28-13.8C1655.67,177.25,1663.51,170.31,1672.92,170.26Z"/><path class="cls-2" d="M404,721.9c7.9.08,13.69,5.84,13.61,13.56-.09,8.51-8.85,16.62-17.65,16.34-8.08-.25-13.79-5.93-13.67-13.58C386.39,729.72,395,721.81,404,721.9Z"/><path class="cls-2" d="M1691.47,500.9a20,20,0,0,1,13.79,4.59c5.81,4.72,5.69,12-.21,16.57-7.59,5.89-21.87,4.85-28.54-2.07-4.65-4.83-4.46-10.27.5-14.81C1680.4,502.09,1684.38,500.86,1691.47,500.9Z"/><path class="cls-2" d="M1371.21,361.33c-5-.27-9.29-1.57-11.54-6.11-2.12-4.24-1.28-8.54,1.33-12.3,4.7-6.77,11.19-10.37,19.57-9.8,9.13.62,13.81,9,9.21,16.9A21.73,21.73,0,0,1,1371.21,361.33Z"/><path class="cls-2" d="M1267.67,859.64a19,19,0,0,1,8.37,1.63c8.31,3.53,9.71,11.91,3,17.93s-18.06,7.39-25.73,3.31c-6.62-3.51-7.86-10.1-3-15.79C1254.19,862.21,1260.24,859.69,1267.67,859.64Z"/><path class="cls-2" d="M1755.87,182.47c-8.56-.14-14.5-6.42-14.28-15.11.21-8.43,6.62-14.34,15.36-14.16a14.67,14.67,0,0,1,14.54,14.68C1771.46,176.32,1764.72,182.61,1755.87,182.47Z"/><path class="cls-2" d="M666.59,432.86c8.57,0,15.45,6.38,15.4,14.37,0,7.77-6.87,14.32-15,14.36-8.53,0-15.52-6.3-15.7-14.22S658.08,432.89,666.59,432.86Z"/><path class="cls-2" d="M1518.19,748.12c-5-.08-9.18-.42-11.27-4.57s.32-7.84,3-10.79A32.78,32.78,0,0,1,1533.25,722c3.84-.19,7.82.65,9.8,4.62s-.16,7.47-2.7,10.39A32.27,32.27,0,0,1,1518.19,748.12Z"/><path class="cls-2" d="M1817.5,530.11c-4.68-.29-9.11-.93-13-3.46-4.31-2.83-5-7-1.93-11.08,6.23-8.34,24.93-11,33.3-4.79,4.46,3.31,4.94,7.27,1.27,11.45C1831.9,528.21,1824.68,529.32,1817.5,530.11Z"/><path class="cls-2" d="M1531.13,301.06c7.06.43,15,3.82,21.35,10.44,2.43,2.53,4.28,5.67,2.85,9.47s-4.77,4.55-8.09,4.82c-9.27.77-17.24-2.71-24.24-8.46-3.4-2.79-6.26-6.23-4.89-11.14C1519.08,302.71,1523,301,1531.13,301.06Z"/><path class="cls-2" d="M736.11,665.21c-7.44,0-10.28-4.46-6.15-10.66,6.94-10.4,17.06-16.21,29.42-17.52,6.53-.69,9.35,4.3,6.31,10.13C761,656.08,746.15,665.17,736.11,665.21Z"/><path class="cls-2" d="M1173.25,27.68c-4.82-.2-8.53.06-10.14-3.62-1.7-3.9.93-6.66,3.53-9.07,8.23-7.63,17.86-11.91,29.23-11.79,3.1,0,6.14.45,7.56,3.69s-.56,5.6-2.46,7.6A43.47,43.47,0,0,1,1173.25,27.68Z"/><path class="cls-2" d="M386.78,681.06c-3.94-.13-7-.46-8.68-3.47-1.74-3.16,0-5.93,2-8.18,7.7-8.84,17.65-13.39,29.23-14.2,2.94-.21,6.14.63,7.53,3.88,1.3,3-.34,5.63-2.16,7.76C407.14,675.64,397.22,679.78,386.78,681.06Z"/><path class="cls-2" d="M749.4,848.52c6.47.06,10.92,2.61,12.49,7.18s-.56,9.85-5.53,13.85c-5.16,4.16-11.07,5.24-17.36,4.17-8.7-1.5-12-9.75-6.84-16.92C736.35,851,742.34,848.55,749.4,848.52Z"/><path class="cls-2" d="M821.49,529.15c-8.87-1.11-18.12-4.34-24.64-12.77-4.16-5.39-2.21-10.23,4.44-11.86,9.2-2.26,26.16,5.57,30.5,14.08C834.8,524.5,830.9,529.08,821.49,529.15Z"/><path class="cls-2" d="M1126,60.51a36,36,0,0,1-20.31-5.34c-2.67-1.67-5.47-3.71-5-7.41.45-3.44,3.4-4.83,6.28-5.72,11-3.42,21.38-1.46,31.1,4.26,2.54,1.49,5.08,3.8,4.32,7.23-.7,3.19-3.52,4.69-6.45,5.66A27.08,27.08,0,0,1,1126,60.51Z"/><path class="cls-2" d="M1223.33,59.71c-4.3.08-8-1.13-10.22-5-2.35-4.1-1.23-8,1.13-11.74,4.4-6.89,13.77-11.25,21-9.83,7.51,1.48,10.85,7.76,7.39,14.59C1238.63,55.51,1232,59.31,1223.33,59.71Z"/><path class="cls-2" d="M.49,468.56c0-10.68.24-11.08,10.72-13.67,5.37-1.32,10.77-2.24,16.26-.59,6.22,1.86,8.14,6.81,4.07,11.85-7.06,8.77-17.06,11.7-27.75,12.83-2.26.24-3.29-1.24-3.3-3.43S.49,470.89.49,468.56Z"/><path class="cls-2" d="M1466.33,740.78c9.53.45,18.26,3.22,25.77,9.26,2.5,2,4.87,4.45,3.9,8s-4.26,4.25-7.18,4.45a42,42,0,0,1-30.87-10c-2.2-1.86-4-4.34-2.89-7.44,1.16-3.3,4.22-4,7.29-4.21C1463.67,740.69,1465,740.78,1466.33,740.78Z"/><path class="cls-2" d="M659.34,920c-12.18-1.4-22.64-6.22-30.25-16.11-3.41-4.43-1.65-8.31,3.89-9.45a11.85,11.85,0,0,1,3.94-.17c10.9,1.49,20.27,6,27.69,14.27,2,2.28,3.73,4.94,2.1,8.11C665.22,919.5,662.33,919.88,659.34,920Z"/><path class="cls-2" d="M599.94,90.45c3.83.49,8.42.47,12.42,2.9,4.17,2.53,4.53,6,1.07,9.41-7,7-27.89,9.75-36.49,4.88-4.37-2.47-4.72-6-1-9.72C580.17,93.82,590.6,90.48,599.94,90.45Z"/><path class="cls-2" d="M1072.87,287.08l2.51,2.33c3.44,4.79,3,7.84-2.44,10.08-11.36,4.7-22.75,3.93-33.8-1.31-2.43-1.15-4.59-3-4.48-6.09s2.49-4.64,5-5.64c9.18-3.63,18.54-3.13,27.93-.86C1069.37,286,1071.11,286.58,1072.87,287.08Z"/><path class="cls-2" d="M1602.48,230.07a32.79,32.79,0,0,1,20,5.94c2.71,1.9,4.68,4.33,4.36,7.86-.34,3.7-3.1,5.57-6.19,6.39-10.78,2.85-20.82,1-29.39-6.26-4.53-3.83-3.42-9.43,1.88-12.19A18.89,18.89,0,0,1,1602.48,230.07Z"/><path class="cls-2" d="M1154.91,552.94a16,16,0,0,1,6.8,1.31c4.31,1.76,7.36,4.65,7.89,9.44s-2.18,8.3-5.9,10.81c-5.4,3.65-11.35,4.71-17.59,2.36-4.46-1.69-7.74-4.61-8.24-9.69S1140,558.58,1144,556A19.2,19.2,0,0,1,1154.91,552.94Z"/><path class="cls-2" d="M1056.64,551.83a16.43,16.43,0,0,1,5.91.91c4.54,1.8,5.79,5.39,3.32,9.59-4.67,7.93-22.5,14.85-31.48,12.22-6.52-1.91-7.88-6.92-2.82-12.06C1038.39,555.55,1047.06,552.48,1056.64,551.83Z"/><path class="cls-2" d="M903.53,881.09c-8,0-13.67-5.09-13.51-12.13.18-7.51,8-14.35,16.4-14.25,7.61.1,13.64,5.56,13.63,12.35C920,874.49,912.22,881.12,903.53,881.09Z"/><path class="cls-2" d="M168.9,571.2c-8,0-14.41-6-14.31-13.42s6.55-13.66,14.29-13.72c7.55-.06,14.24,6.29,14.38,13.65C183.4,564.92,176.77,571.15,168.9,571.2Z"/><path class="cls-2" d="M388.22,554.26a39.27,39.27,0,0,1-21.5-5c-2.31-1.34-4.76-2.94-4.5-6,.26-3.29,2.95-4.67,5.73-5.47,11.21-3.23,22-1.6,32.35,3.37,2.67,1.28,5.41,3.2,5.07,6.72-.37,3.85-3.77,4.66-6.78,5.61C395.2,554.49,391.69,554.19,388.22,554.26Z"/><path class="cls-2" d="M462.23,123.1a46.65,46.65,0,0,1,25.7,8.42c2.54,1.78,5.43,4,4.24,7.75-1.14,3.54-4.54,4.09-7.78,4.27a45.72,45.72,0,0,1-28.88-7.69c-2.83-1.91-6.44-4.17-5.36-8.21,1.14-4.3,5.42-4.27,9.09-4.53C460.23,123,461.23,123.1,462.23,123.1Z"/><path class="cls-2" d="M1589.82,168.37c-.33-1-.66-2-1-3-.29-6.31,2.41-10.92,8.13-13.53,6.23-2.84,12.07-1.46,17.19,2.67a11.72,11.72,0,0,1,3.38,13.92c-2.52,5.28-9.37,8.67-15.45,7.69C1596.89,175.28,1593,172.47,1589.82,168.37Z"/><path class="cls-2" d="M312.69,470.44A38,38,0,0,1,308,470c-6.21-1.33-8-5.88-4.54-11.14,5.13-7.72,20.79-13.19,29.62-10.35,5.66,1.82,7.21,6.5,3.25,11.29C330.25,467.21,321.89,470.05,312.69,470.44Z"/><path class="cls-2" d="M1889.6,523c8.22.21,15.77,6.94,15.62,13.92-.15,6.59-6.18,11.67-13.76,11.58-8.6-.11-16-6.73-15.84-14.14C1875.78,528,1882.12,522.81,1889.6,523Z"/><path class="cls-2" d="M898.74,33.22c-10.86-1.54-20.83-6.09-28.33-15.1-3.85-4.62-2-8.59,3.93-9.4,8.91-1.2,26.86,7.92,31.39,16,1,1.79,1.84,3.6.7,5.64C905.44,32.07,902.42,33.31,898.74,33.22Z"/><path class="cls-2" d="M949.53,764.06a28.62,28.62,0,0,1-16.08-4c-2.51-1.53-4.53-3.57-4.25-6.76.26-2.91,2.26-4.77,4.82-5.86a30.46,30.46,0,0,1,28.19,1.6c6.15,3.48,5.73,9.38-.53,12.6A23.47,23.47,0,0,1,949.53,764.06Z"/><path class="cls-2" d="M372.11,853.54c3.49.11,9.11-.46,10.68,5s-3.65,8-7.58,10.31a35.14,35.14,0,0,1-20.57,4.87c-3.69-.25-7.72-.93-8.92-5.1s2-6.79,5.06-8.85A35.93,35.93,0,0,1,372.11,853.54Z"/><path class="cls-2" d="M1291.33,3.16c9.15.78,18.23,3.5,25.59,10.52,1.83,1.74,3.61,3.67,2.8,6.5s-3.35,3.78-5.83,3.94A39.28,39.28,0,0,1,1283,12.91c-1.71-1.64-2.78-3.88-1.71-6.36,1-2.25,3.13-2.85,5.33-3.13C1287.93,3.25,1289.27,3.27,1291.33,3.16Z"/><path class="cls-2" d="M183.85,306.23c-1.16-.17-2-.26-2.8-.41-7.19-1.33-11.41-5.58-10.74-10.82.62-4.83,6.53-9.09,13-8.53a187.63,187.63,0,0,1,19.57,3c2.92.56,6.22,1.78,6.18,5.44,0,3.22-3,5.2-5.7,5.38C196.22,300.77,190.48,305.47,183.85,306.23Z"/><path class="cls-2" d="M1573.8,877.94c-9.73-1.34-18.36-6.8-24.59-15.78-3.34-4.82-.47-9.93,5.3-9.24,11.39,1.37,20.82,6.65,26.88,16.65C1584.46,874.64,1581.57,878.2,1573.8,877.94Z"/><path class="cls-2" d="M1007.31,775.54a20.19,20.19,0,0,1,3.86.5c4.36,1.2,5.64,4.55,3.39,8.47-4.3,7.5-21.76,14.42-30.1,11.94-5.43-1.61-6.54-5.28-3-9.79C986.47,780.36,997.07,775.6,1007.31,775.54Z"/><path class="cls-2" d="M1730.46,496.88c-7.54-.4-13.18-5.62-12.86-11.92.34-6.88,7.25-12.29,15.29-11.95,7,.29,13,5.7,12.78,11.55C1745.42,491.13,1737.84,497.27,1730.46,496.88Z"/><path class="cls-2" d="M914.73,158.8c-7.63-.25-14.72-6.91-14.56-13.69.15-6.21,5.76-11,12.56-10.79,7.85.27,14.56,6.63,14.46,13.68C927.1,154.32,921.67,159,914.73,158.8Z"/><path class="cls-2" d="M1345.39,386.08a25,25,0,0,1,17.14,5.58c2.52,2,4.53,4.62,3.81,8.13-.68,3.35-3.44,4.77-6.44,5.55-8.34,2.17-15.81,0-22.45-5.12-2.79-2.14-5.4-4.89-4-8.91,1.36-3.79,4.86-4.72,8.42-5.2A25.24,25.24,0,0,1,1345.39,386.08Z"/><path class="cls-2" d="M1491.4,394.54c-1.36-.09-2.71-.06-4-.27-6.13-1-8-5.36-4.46-10.41,4.62-6.63,19.19-11.69,27-9.39,5.79,1.69,7.2,6.44,2.89,11C1507.09,391.63,1499.68,394.27,1491.4,394.54Z"/><path class="cls-2" d="M798.28,233.2a28.49,28.49,0,0,1,19,8.64c4.94,5.17,3.4,9.94-3.5,11.59-7.69,1.84-20.87-3.1-25.45-9.57-1.51-2.14-2.34-4.44-.93-7S792,233.18,798.28,233.2Z"/><path class="cls-2" d="M1596.7,260.62c6.39.56,12.09,3.11,16,8.92,2.17,3.22,3.15,6.73,1.09,10.27-2.18,3.75-6.07,4.72-10,4.19-6.46-.89-12-3.72-15.42-9.67C1584.39,267.36,1588.22,260.7,1596.7,260.62Z"/><path class="cls-2" d="M723.21,158.08a18.8,18.8,0,0,1,16.32,9.76c3.77,6.43.11,13.17-7.38,13.43a19.26,19.26,0,0,1-17.06-8.55c-2.22-3.11-3.38-6.58-1.28-10.25S719.26,157.84,723.21,158.08Z"/><path class="cls-2" d="M1122.14,133.35c4.94.54,10.06,1.83,13.7,6.29,3.33,4.07,2.6,8.64-1.72,11.61-6.59,4.52-18.71,3.23-24-2.56-4.09-4.43-3.25-10,2-13A18.5,18.5,0,0,1,1122.14,133.35Z"/><path class="cls-2" d="M506.05,755.89c-6.35-.13-8.81-3.8-6-8,6.47-9.56,15.63-15.23,27.25-16.07,5.39-.38,7.55,3.19,4.73,7.69C525.81,749.48,515.93,753.77,506.05,755.89Z"/><path class="cls-2" d="M1132,706.86c-6.47,0-11.69-3.52-12.72-8.21-1-4.53,2.14-9.25,7.87-11.86,4.25-1.92,8.58-2.52,13-.72,3.53,1.44,6.47,3.52,7,7.66s-1.49,7.31-4.81,9.71A20.19,20.19,0,0,1,1132,706.86Z"/><path class="cls-2" d="M952,419.33a21.45,21.45,0,0,1-13-3.23c-4.76-3.1-4.74-7.65-.06-10.8,6.69-4.51,20.14-4.29,26.63.44,4,2.95,4.26,6.69.41,9.91S957.26,419.4,952,419.33Z"/><path class="cls-2" d="M1413.57,148c-3.07-.3-6-.81-7.71-3.82s-.52-5.59,1.12-7.95a24,24,0,0,1,17.88-10.62c3.26-.34,6.35.65,8.18,3.74,1.69,2.87.47,5.58-1.12,7.95C1427.55,143.78,1421.26,147.12,1413.57,148Z"/><path class="cls-2" d="M348.2,518a18.3,18.3,0,0,1,12.9,6.61c2.76,3.38,3.63,7.33,1.26,11.12s-6.4,4.55-10.58,3.77a18.38,18.38,0,0,1-10.95-6.47c-2.54-3.06-3.44-6.58-1.88-10.23C340.61,518.92,344.35,518.29,348.2,518Z"/><path class="cls-2" d="M1634.29,460.25c-4.26-.38-8.85-1-10.21-6s2.3-7.93,6-10.35c4.68-3.05,9.91-3.66,15.29-2.63,3.07.58,5.59,2.28,6.55,5.44s-.59,5.46-2.67,7.55C1645.19,458.35,1640.13,460.05,1634.29,460.25Z"/><path class="cls-2" d="M.44,395.88c0-2,0-4,0-6,.06-5.86.81-6.33,5.85-3.66,5.49,2.91,10.56,6.39,14.09,11.6,3.95,5.82,2.08,10.08-4.79,11.65-4.22,1-8.23-.09-12.27-1-2.12-.5-2.87-2-2.85-4.1,0-2.82,0-5.64,0-8.47Z"/><path class="cls-2" d="M1577.7,589.33c-6.75-.1-11.5-1.71-15.17-5.81s-2.92-8.81,2.07-11.44c6.34-3.36,18-.51,22.15,5.4,2.55,3.63,1.85,7.35-1.84,9.89A12.27,12.27,0,0,1,1577.7,589.33Z"/><path class="cls-2" d="M548.87,331.22c-6.13,0-10.88-2.46-11.43-6s2.79-7.55,8.58-9.71a24.11,24.11,0,0,1,14.17-1.29c3,.72,5.91,2,6.44,5.39s-1.61,5.61-4.14,7.41A26.37,26.37,0,0,1,548.87,331.22Z"/><path class="cls-2" d="M1532.54,703.21a21.27,21.27,0,0,1-14.74-5.06c-4.67-4-3.8-9.06,2-11.1,7.5-2.66,14.42-.74,20.8,3.42,2.56,1.67,4.76,4.07,3.79,7.46-.91,3.22-3.77,4.47-6.86,5A48,48,0,0,1,1532.54,703.21Z"/><path class="cls-2" d="M1883.94,601.15a19.18,19.18,0,0,1-8.77-1.49c-4.33-2-5-5.78-1.54-9.13,5.24-5.15,19.38-7.17,25.89-3.7,4.48,2.39,5,5.75,1.14,9C1895.86,599.84,1890.05,601.06,1883.94,601.15Z"/><path class="cls-2" d="M281.47,417.61c-4.6-.21-8.91-1.15-12.08-4.89-2.94-3.45-2.56-7.65.93-10.49,5.23-4.26,15.64-3.41,20.15,1.65,3.64,4.07,2.61,9.46-2.3,12A15.64,15.64,0,0,1,281.47,417.61Z"/><path class="cls-2" d="M125.07,606.51c-3-.26-6.43.1-7.76-3.3-1.26-3.24,1.29-5.34,3.45-7.07,6.15-4.94,13.16-7.64,21.15-7.24,2.38.12,4.73.77,5.56,3.4.76,2.38-.61,4.2-2.22,5.7C139.57,603.33,132.71,605.9,125.07,606.51Z"/><path class="cls-2" d="M772.73,696.76c3.65.15,6.65.7,8.08,3.86s0,5.9-2.07,8.2a21.25,21.25,0,0,1-15,6.84c-3,.15-6-.8-7.55-3.89s.06-5.91,2.08-8.16A21.83,21.83,0,0,1,772.73,696.76Z"/><path class="cls-2" d="M1260.39,481.18c-4-.11-7.47-1-9-4.77s.72-6.49,3.38-8.66c4.42-3.61,9.45-5.66,15.27-4.05s7.36,6.56,3.58,11.13C1270.16,479.06,1265.39,480.78,1260.39,481.18Z"/><path class="cls-2" d="M1811.71,28.34c6.48,1,12.58,3.45,17.58,8.17,1.72,1.63,3.31,3.62,2.13,6.13s-3.94,3-6.45,2.64c-6.52-1-12.51-3.32-17.3-8.06-1.63-1.62-3.66-3.37-2.57-6S1808.94,28.43,1811.71,28.34Z"/><path class="cls-2" d="M1344.27,350.82c-5.93-.11-10.8-3.43-10.86-7.41-.05-3.76,4.22-7,10.17-7.67,6.64-.77,12.85,2.51,13.12,6.93S1350.88,350.94,1344.27,350.82Z"/><path class="cls-2" d="M1134.77,367c3.32.57,8.64-.06,9.27,5.24.58,4.79-4.19,6.16-8,7.43-4,1.35-8.06,1.88-12.18.49-2.29-.77-4.4-1.87-4.76-4.51-.35-2.47,1.37-4,3.21-5.19A22.06,22.06,0,0,1,1134.77,367Z"/><path class="cls-2" d="M1183.05,500.16c-5.45,0-10-4.24-9.83-9.2.13-4.27,4.37-8,9.18-8.09,5.8-.1,10,3.67,9.93,8.85C1192.24,496.6,1188.34,500.14,1183.05,500.16Z"/><path class="cls-2" d="M1218.27,447.17c-2.57,0-4.41-.22-5.5-2s-.31-3.59.83-5a23.82,23.82,0,0,1,16.51-9.06c2-.25,4.07.09,5.17,2.15,1,1.9.06,3.59-1.09,5A24.75,24.75,0,0,1,1218.27,447.17Z"/><path class="cls-2" d="M1847.55,567.19c-2.55-.11-4.74.08-5.63-2.23-.78-2,.6-3.47,1.89-4.77,4.26-4.32,9.68-6.22,15.51-7.05,1.83-.27,3.82.08,4.81,1.88,1.16,2.12-.12,3.94-1.56,5.29A26,26,0,0,1,1847.55,567.19Z"/><path class="cls-2" d="M1610.38,308.45a13,13,0,0,1-9.76-5.08c-1.39-1.75-2.29-3.75-1.17-6a5.64,5.64,0,0,1,5.29-3.16,13,13,0,0,1,10.93,5c1.47,1.85,2.52,4,1.3,6.47S1613.44,308.44,1610.38,308.45Z"/><path class="cls-2" d="M1512.54,795.88c-3.08-.58-7.67-.16-8.94-5-.72-2.79,4.33-5.36,10-5,3.72.22,8.07.1,9.12,4.94C1523.29,793.63,1518.85,795.91,1512.54,795.88Z"/></g></g></svg>