<?xml version="1.0" standalone="no"?>
<!DOCTYPE svg PUBLIC "-//W3C//DTD SVG 20010904//EN"
 "http://www.w3.org/TR/2001/REC-SVG-20010904/DTD/svg10.dtd">
<svg version="1.0" xmlns="http://www.w3.org/2000/svg"
 width="800.000000pt" height="600.000000pt" viewBox="0 0 800.000000 600.000000"
 preserveAspectRatio="xMidYMid meet">

<g transform="translate(0.000000,600.000000) scale(0.100000,-0.100000)"
fill="#000000" stroke="none">
<path d="M0 3000 l0 -3000 4000 0 4000 0 0 3000 0 3000 -4000 0 -4000 0 0
-3000z m2640 1625 l0 -45 -55 0 -55 0 0 45 0 45 55 0 55 0 0 -45z m1350 -190
l0 -235 -55 0 -55 0 0 235 0 235 55 0 55 0 0 -235z m-2230 134 l0 -81 88 81
87 81 65 0 65 0 -108 -107 -107 -108 117 -117 118 -118 -70 0 -70 0 -85 85
c-47 47 -88 85 -92 85 -5 0 -8 -38 -8 -85 l0 -85 -55 0 -55 0 0 225 0 225 55
0 55 0 0 -81z m1984 -147 l84 -223 -61 3 -60 3 -11 40 -12 40 -94 0 -94 0 -12
-40 -11 -40 -60 -3 -61 -3 79 213 c44 117 82 219 84 226 3 9 24 12 75 10 l71
-3 83 -223z m1186 183 l0 -45 -75 0 -75 0 0 -180 0 -180 -60 0 -60 0 0 180 0
180 -75 0 -75 0 0 45 0 45 210 0 210 0 0 -45z m1260 34 c0 -6 -35 -120 -77
-255 l-77 -244 -34 0 c-27 0 -33 3 -28 16 3 8 38 118 76 242 39 125 73 233 75
240 5 15 65 16 65 1z m-1980 -49 l0 -50 55 0 55 0 0 -40 0 -40 -55 0 -55 0 0
-78 c0 -89 8 -102 62 -102 38 0 38 0 38 -40 l0 -40 -65 0 c-120 0 -145 31
-145 176 0 83 0 84 -25 84 -22 0 -25 4 -25 40 0 36 3 40 25 40 23 0 25 3 25
50 l0 50 55 0 55 0 0 -50z m1630 0 l0 -50 55 0 55 0 0 -40 0 -40 -55 0 -55 0
0 -78 c0 -89 8 -102 62 -102 38 0 38 0 38 -40 l0 -40 -65 0 c-120 0 -145 31
-145 176 0 83 0 84 -25 84 -22 0 -25 4 -25 40 0 36 3 40 25 40 23 0 25 3 25
50 l0 50 55 0 55 0 0 -50z m-3480 -62 c52 -27 90 -89 90 -150 l0 -38 -125 0
c-139 0 -150 -6 -99 -57 23 -23 31 -25 83 -20 32 2 72 12 90 21 l32 17 -3 -43
c-3 -43 -4 -43 -53 -56 -64 -17 -165 -10 -206 14 -59 35 -74 66 -74 154 0 63
4 84 21 107 29 40 99 73 154 73 28 0 63 -9 90 -22z m689 -12 c25 -26 26 -30
29 -171 l3 -145 -55 0 -56 0 0 125 c0 116 -1 125 -21 135 -11 7 -32 9 -45 6
-40 -10 -54 -54 -54 -166 l0 -100 -55 0 -55 0 0 170 0 170 55 0 c49 0 55 -2
55 -21 0 -20 0 -20 28 -1 40 28 53 32 101 28 30 -3 51 -12 70 -30z m2101 12
c52 -27 90 -89 90 -150 l0 -38 -125 0 c-139 0 -150 -6 -99 -57 23 -23 31 -25
83 -20 32 2 72 12 90 21 l32 17 -3 -43 c-3 -43 -4 -43 -53 -56 -64 -17 -165
-10 -206 14 -59 35 -74 66 -74 154 0 63 4 84 21 107 29 40 99 73 154 73 28 0
63 -9 90 -22z m-2510 -158 l0 -170 -55 0 -55 0 0 170 0 170 55 0 55 0 0 -170z
m2791 125 c18 -25 35 -45 39 -45 4 0 21 20 39 45 31 44 34 45 87 45 30 0 54
-1 54 -3 0 -2 -27 -39 -59 -83 -34 -44 -56 -83 -52 -89 5 -5 34 -45 65 -87
l57 -78 -60 0 -59 0 -32 50 c-18 28 -35 50 -39 50 -5 0 -23 -22 -42 -50 l-34
-50 -58 0 -58 0 64 87 65 87 -52 71 c-76 102 -75 95 -12 95 53 0 56 -1 87 -45z
m-871 -120 l0 -45 -95 0 -95 0 0 45 0 45 95 0 95 0 0 -45z m-1180 -521 l0 -85
33 23 c48 35 127 33 164 -5 28 -27 28 -29 31 -172 l3 -145 -55 0 -56 0 0 125
c0 116 -1 125 -21 135 -11 7 -32 9 -45 6 -40 -10 -54 -54 -54 -166 l0 -100
-55 0 -55 0 0 235 0 235 55 0 55 0 0 -86z m1170 41 l0 -45 -55 0 -55 0 0 45 0
45 55 0 55 0 0 -45z m210 -40 l0 -84 36 24 c102 69 217 -14 217 -155 0 -141
-115 -224 -217 -155 -34 23 -36 23 -36 5 0 -18 -7 -20 -55 -20 l-55 0 0 235 0
235 55 0 55 0 0 -85z m-2817 45 c59 -29 74 -108 32 -159 -25 -29 -26 -30 -6
-41 47 -24 64 -105 36 -160 -27 -52 -64 -64 -217 -68 l-138 -4 0 227 0 227
133 -4 c85 -3 142 -9 160 -18z m417 -102 c52 -27 90 -89 90 -150 l0 -38 -125
0 c-139 0 -150 -6 -99 -57 23 -23 31 -25 83 -20 32 2 72 12 90 21 l32 17 -3
-43 c-3 -43 -4 -43 -53 -56 -64 -17 -165 -10 -206 14 -59 35 -74 66 -74 154 0
63 4 84 21 107 29 40 99 73 154 73 28 0 63 -9 90 -22z m423 7 c12 -5 17 -18
17 -47 0 -34 -2 -39 -17 -33 -36 16 -121 28 -147 21 -21 -5 -27 -12 -24 -29 3
-19 14 -24 82 -38 101 -21 131 -49 123 -116 -2 -24 -13 -53 -22 -63 -26 -29
-90 -43 -170 -37 -97 7 -105 12 -105 57 l0 38 47 -14 c61 -18 118 -18 137 1
29 29 -1 54 -64 55 -45 1 -106 35 -119 69 -26 60 3 121 65 141 31 10 168 6
197 -5z m360 4 c36 -10 37 -12 37 -54 l0 -44 -35 15 c-55 22 -93 18 -126 -15
-23 -23 -29 -38 -29 -71 0 -33 6 -48 29 -71 33 -33 71 -37 126 -15 l35 15 0
-44 c0 -44 -1 -44 -42 -56 -87 -23 -187 4 -231 63 -25 34 -34 130 -18 180 28
85 141 129 254 97z m817 -37 c0 -48 0 -49 -30 -44 -41 6 -85 -14 -99 -44 -6
-14 -11 -67 -11 -119 l0 -95 -55 0 -55 0 0 170 0 170 55 0 c48 0 55 -2 55 -20
0 -18 2 -18 36 5 21 14 51 25 70 25 34 0 34 0 34 -48z m310 26 c52 -27 90 -89
90 -150 l0 -38 -125 0 c-139 0 -150 -6 -99 -57 23 -23 31 -25 83 -20 32 2 72
12 90 21 l32 17 -3 -43 c-3 -43 -4 -43 -53 -56 -64 -17 -165 -10 -206 14 -59
35 -74 66 -74 154 0 63 4 84 21 107 29 40 99 73 154 73 28 0 63 -9 90 -22z
m1569 -12 c25 -26 26 -30 29 -171 l3 -145 -55 0 -56 0 0 125 c0 116 -1 125
-21 135 -11 7 -32 9 -45 6 -40 -10 -54 -54 -54 -166 l0 -100 -55 0 -55 0 0
170 0 170 55 0 c49 0 55 -2 55 -21 0 -20 0 -20 28 -1 40 28 53 32 101 28 30
-3 51 -12 70 -30z m325 9 c34 -23 36 -23 36 -5 0 18 7 20 55 20 l55 0 0 -179
c0 -168 -1 -180 -23 -211 -12 -19 -37 -43 -55 -53 -41 -24 -143 -33 -199 -18
-41 11 -43 13 -43 50 l0 39 43 -15 c88 -31 167 1 167 68 l0 28 -36 -24 c-100
-68 -214 12 -214 150 0 138 114 218 214 150z m-1614 -155 l0 -170 -55 0 -55 0
0 170 0 170 55 0 55 0 0 -170z m650 51 c0 -95 3 -123 16 -135 21 -21 47 -20
75 3 22 18 24 27 27 135 l4 116 54 0 54 0 0 -170 0 -170 -55 0 c-48 0 -55 2
-55 20 0 18 -2 18 -36 -5 -42 -29 -91 -32 -134 -10 -50 26 -60 59 -60 205 l0
130 55 0 55 0 0 -119z"/>
<path d="M3561 4463 c-13 -38 -26 -74 -29 -80 -3 -10 13 -13 58 -13 45 0 61 3
58 13 -3 6 -16 42 -29 80 -13 37 -26 67 -29 67 -3 0 -16 -30 -29 -67z"/>
<path d="M2225 4455 c-39 -38 -32 -45 45 -45 77 0 88 12 50 50 -27 27 -66 25
-95 -5z"/>
<path d="M5015 4455 c-39 -38 -32 -45 45 -45 77 0 88 12 50 50 -27 27 -66 25
-95 -5z"/>
<path d="M4789 3721 c-21 -16 -24 -28 -24 -81 0 -53 3 -65 24 -81 31 -25 65
-24 91 3 15 17 20 35 20 78 0 43 -5 61 -20 78 -26 27 -60 28 -91 3z"/>
<path d="M1760 3795 l0 -45 48 0 c52 0 72 12 72 45 0 33 -20 45 -72 45 l-48 0
0 -45z"/>
<path d="M1760 3610 l0 -60 53 0 c60 0 87 19 87 62 0 39 -29 58 -88 58 l-52 0
0 -60z"/>
<path d="M2225 3725 c-39 -38 -32 -45 45 -45 77 0 88 12 50 50 -27 27 -66 25
-95 -5z"/>
<path d="M4135 3725 c-39 -38 -32 -45 45 -45 77 0 88 12 50 50 -27 27 -66 25
-95 -5z"/>
<path d="M6090 3722 c-34 -27 -39 -108 -10 -144 47 -60 120 -18 120 67 0 78
-58 119 -110 77z"/>
</g>
</svg>
