<svg xmlns="http://www.w3.org/2000/svg" viewBox="0 0 23.83 22.75"><path fill="#444" d="M5.91 1.35h17.92v3H5.91zM5.91 9.9h17.92v3H5.91zM5.91 18.4h17.92v3H5.91zM2.82.57v4.56a.53.53 0 01-.58.57.53.53 0 01-.57-.57V1.78L1.42 2a.6.6 0 01-.34.18A.51.51 0 01.66 2a.56.56 0 01-.17-.41.6.6 0 01.19-.39l1-1a.78.78 0 01.61-.2.51.51 0 01.53.57zM4.19 13.68a.53.53 0 01-.57.57H.75a.53.53 0 01-.58-.57 2.29 2.29 0 01.19-1A2.11 2.11 0 01.83 12a3.55 3.55 0 01.58-.46l.59-.31.71-.41a1.67 1.67 0 00.36-.3.49.49 0 00.09-.3c0-.33-.07-.42-.09-.44s-.11-.08-.44-.08h-.87a1 1 0 00-.41.06.26.26 0 00-.09.18.71.71 0 01-.17.36.54.54 0 01-.42.16.57.57 0 01-.42-.16.51.51 0 01-.14-.45 1.47 1.47 0 01.52-1 1.85 1.85 0 011.13-.32h.82A1.7 1.7 0 013.83 9a1.7 1.7 0 01.42 1.25 1.54 1.54 0 01-.27.92 2.59 2.59 0 01-.66.61l-.8.48-.52.31a2.07 2.07 0 00-.41.36.71.71 0 00-.12.18h2.2a.53.53 0 01.52.57zM4.36 21a1.78 1.78 0 01-.44 1.3 1.79 1.79 0 01-1.31.44h-.87a1.83 1.83 0 01-1.19-.34 1.47 1.47 0 01-.54-1 .55.55 0 01.13-.46.62.62 0 01.43-.16.55.55 0 01.58.54.34.34 0 00.12.23 1.15 1.15 0 00.47.07h.87a.83.83 0 00.5-.1s.1-.14.1-.49-.07-.46-.1-.49a.83.83 0 00-.5-.1H2a.58.58 0 010-1.15h.9c.07 0 .09 0 .11-.07a1.19 1.19 0 00.08-.48c0-.34-.07-.43-.09-.44s-.11-.09-.44-.09h-.74a1 1 0 00-.41.06.26.26 0 00-.1.19.56.56 0 01-.58.54.58.58 0 01-.43-.17.51.51 0 01-.12-.46 1.41 1.41 0 01.52-1 1.8 1.8 0 011.12-.31h.74a1.7 1.7 0 011.25.42 1.7 1.7 0 01.42 1.25 1.59 1.59 0 01-.28 1 1.15 1.15 0 01.26.41 2.33 2.33 0 01.15.86z"/></svg>