<svg xmlns="http://www.w3.org/2000/svg" viewBox="0 0 28.86 21.59"><path fill="#444" d="M.32 14.21L0 12.24 28.54 7.5l.32 1.97L.32 14.21zM8.19 6.25A2.05 2.05 0 018.7 4.5c1-1.07 3.14-1.61 5.94-1.48 4.73.23 6.21 3.56 6.27 3.7l1.33-.55 1.45-.59C23.6 5.36 21.49.35 14.78 0 10-.21 7.61 1.24 6.47 2.49A5 5 0 007.32 10l5.58-.93c-2.33-.44-4.5-1.41-4.71-2.82zM20.59 15.47a1.68 1.68 0 01-.34 1.53c-.92 1.11-3.22 1.7-6.13 1.55-4.74-.2-6.22-3.55-6.27-3.66l-1.36.55-1.42.56c.09.22 2.2 5.23 8.9 5.55h1c3.49 0 6.17-.93 7.6-2.66a4.66 4.66 0 001-4.15 5.7 5.7 0 00-1.9-3.09l-5.37.89c2.56.54 3.94 1.46 4.29 2.93z"/><path d="M20.39 10.86l-7.66 1.23h.18l7.51-1.25z" fill="#444"/></svg>