<svg xmlns="http://www.w3.org/2000/svg" viewBox="12 11 26.7 26"><defs><clipPath id="prefix__clip-path" transform="translate(12.25 11.3)"><path class="prefix__cls-fill-none" fill="none" d="M0 0h26.23v26.23H0z"/></clipPath><style>.prefix__cls-1{fill:#444}</style></defs><g clip-path="url(#prefix__clip-path)"><path class="prefix__cls-1" d="M-.007 25.96L25.958-.003l.707.707L.7 26.668zM3.438 29.4L29.403 3.437l.707.707L4.145 30.108zM6.88 32.84l.7.71 9.8-9.8 1.48-2.9L6.88 32.84zM33.55 7.58l-.71-.7-5.37 5.37.48.93 5.6-5.6zM19.5 28.37l-.12.27-.02.02.14-.29zM13.73 32.86l-3.42 3.42.71.71 3.65-3.65-.86-.44-.08-.04zM23.15 23.44l-.47.93h.96l2.92-2.92-.48-.94-2.93 2.93zM36.99 11.02l-.71-.71-6.48 6.48.48.94 6.71-6.71zM40.42 14.46l-.7-.71-7.59 7.59.48.93 7.81-7.81zM13.75 39.72l.71.7 11.05-11.05H24.1L13.75 39.72zM17.19 43.16l.71.7 13.32-13.32-.48-.93-13.55 13.55zM43.86 17.9l-.7-.71-8.7 8.7.48.93 8.92-8.92zM47.3 21.33l-.71-.7-9.8 9.8.48.94L47.3 21.33zM34.26 34.27l-.9.46-.29-.58-12.44 12.44.7.71 13.15-13.15-.22.12zM24.073 50.03l25.965-25.964.707.707L24.78 50.738zM29.7 25.37h-.18l.12-.12.06.12z"/><path class="prefix__cls-1" d="M36.04 31.18l-1.85-3.62-.48-.94-1.85-3.6-.48-.94-1.85-3.61-.48-.93-1.8-3.61-.48-.95-.2-.38h-2.32l-4.57 8.84L14.25 32l.21.12.94.48.18.09 1.34.68.33-.68 2.07-4 .15-.29h11.78l.26.48.48.94 1.48 2.9.35.68h.1l1.24-.64 1.33-.69zm-15-5.81l4.33-8.44 1.46 2.84.48.92 1.84 3.61.48.94.06.12z"/></g></svg>