<svg xmlns="http://www.w3.org/2000/svg" width="68" height="67.323" viewBox="0 0 68 67.323">
  <path id="Differenzmenge_1" data-name="Differenzmenge 1" d="M6867.7-1160.677v-21.64H6859V-1228h68v45.683h-45.287l-14.008,21.637Zm40.3-49.509a5.006,5.006,0,0,0-5,5,5.006,5.006,0,0,0,5,5,5.005,5.005,0,0,0,5-5A5.005,5.005,0,0,0,6908-1210.186Zm-15,0a5.006,5.006,0,0,0-5,5,5.006,5.006,0,0,0,5,5,5.006,5.006,0,0,0,5-5A5.006,5.006,0,0,0,6893-1210.186Zm-15,0a5.006,5.006,0,0,0-5,5,5.006,5.006,0,0,0,5,5,5.006,5.006,0,0,0,5-5A5.006,5.006,0,0,0,6878-1210.186Z" transform="translate(-6859 1228)" fill="#d69834"/>
</svg>
