<svg xmlns="http://www.w3.org/2000/svg" width="71" height="71" viewBox="0 0 71 71">
  <g id="b" transform="translate(-157 0.636)">
    <g id="c" transform="translate(157 -0.636)">
      <g id="Gruppe_197" data-name="Gruppe 197" transform="translate(0 0)">
        <circle id="Ellipse_102" data-name="Ellipse 102" cx="35.5" cy="35.5" r="35.5" transform="translate(0 0)" fill="#d69834"/>
        <g id="Gruppe_196" data-name="Gruppe 196" transform="translate(13.579 5.706)">
          <path id="Pfad_181" data-name="Pfad 181" d="M99.326,52.123a11.746,11.746,0,1,1,11.746-11.746.7.7,0,0,1-1.4,0A10.351,10.351,0,1,0,99.326,50.728a.7.7,0,1,1,0,1.4Z" transform="translate(-83.705 -28.63)" fill="#fff"/>
          <path id="Pfad_182" data-name="Pfad 182" d="M112.138,61.743a8.567,8.567,0,0,1-8.558-8.556.7.7,0,1,1,1.4,0,7.162,7.162,0,1,0,7.163-7.163.7.7,0,0,1,0-1.4,8.557,8.557,0,0,1,0,17.113Z" transform="translate(-96.516 -41.441)" fill="#fff"/>
          <circle id="Ellipse_103" data-name="Ellipse 103" cx="5.319" cy="5.319" r="5.319" transform="translate(10.302 6.427)" fill="#fff"/>
          <g id="Gruppe_195" data-name="Gruppe 195" transform="translate(0 7.266)">
            <g id="d" transform="translate(1.178 1.46)">
              <path id="e" d="M425.873,400.508a3.158,3.158,0,0,0-3.375,3.375v18.691a2.066,2.066,0,0,1-3.636,1.329l0,0c-1.841-2.176-3.822-3.439-4.776-3.439a2.75,2.75,0,0,0-2.09.712l-.01.014c-.029.041-.06.086-.1.132-.3.38-.751,1.162-.185,3a49.973,49.973,0,0,0,2.476,5.664,92.218,92.218,0,0,0,4.55,8.166,40.953,40.953,0,0,0,3.429,4.634l.018.021,0,0c.021.023.039.043.058.068,1.944,2.474,3.552,4.7,3.645,7.919h21.352a47.169,47.169,0,0,1,1.853-11.677,45.58,45.58,0,0,0,1.75-11.652v-5.442a3.157,3.157,0,0,0-3.375-3.375,4.966,4.966,0,0,0-1.343.255v0a2.081,2.081,0,0,1-2.625-1.347v0a3.242,3.242,0,0,0-3.287-2.53,2.229,2.229,0,0,0-1.3.313,2.09,2.09,0,0,1-2.991-.559l0,0a3.121,3.121,0,0,0-3.943-1.308,2.1,2.1,0,0,1-2.717-1.956v-7.621a3.157,3.157,0,0,0-3.375-3.375h0Z" transform="translate(-411.428 -400.506)" fill="#d69834"/>
            </g>
            <g id="f" transform="translate(0 0)">
              <path id="g" d="M395.954,363.269a4.488,4.488,0,0,0-4.624,4.624v18.684a.819.819,0,0,1-1.442.527c-1.94-2.291-4-3.883-5.724-3.883a3.7,3.7,0,0,0-3.128,1.269.527.527,0,0,1-.043.058c-.551.689-1.061,2-.4,4.145a81.724,81.724,0,0,0,7.164,14.133,42.365,42.365,0,0,0,3.556,4.8l.025.025c2,2.54,3.439,4.424,3.439,7.4a.9.9,0,0,0,1,1h21.766a.9.9,0,0,0,1-1,45.128,45.128,0,0,1,1.839-11.627,46.829,46.829,0,0,0,1.789-11.952v-5.442a4.488,4.488,0,0,0-4.624-4.624,5.809,5.809,0,0,0-1.736.319.819.819,0,0,1-1.037-.518.04.04,0,0,0-.006-.016,4.581,4.581,0,0,0-4.478-3.412,3.374,3.374,0,0,0-2.049.564.818.818,0,0,1-1.146-.165.61.61,0,0,1-.041-.06,4.355,4.355,0,0,0-5.4-1.835.819.819,0,0,1-1.035-.518.831.831,0,0,1-.041-.257v-7.616a4.488,4.488,0,0,0-4.624-4.624Zm-.181,1.991a2.522,2.522,0,0,1,2.631,2.631v16.325a1,1,0,1,0,1.991,0v-3.628a2.632,2.632,0,1,1,5.261,0v5.442a1,1,0,1,0,1.991,0V382.4a2.632,2.632,0,1,1,5.261,0v5.442a1,1,0,1,0,1.991,0V386.03a2.632,2.632,0,1,1,5.261,0v5.442a44.911,44.911,0,0,1-1.839,11.442l.006-.021a57.1,57.1,0,0,0-1.8,10.381.819.819,0,0,1-.819.784h-18.32a.82.82,0,0,1-.815-.722c-.331-2.81-1.966-4.624-3.961-6.8a.736.736,0,0,1-.053-.06,49.181,49.181,0,0,1-3.3-4.595l0,0a.007.007,0,0,0,0-.006c-1.826-2.925-3.421-5.843-4.634-8.289a36.37,36.37,0,0,1-2.349-5.521.479.479,0,0,1-.014-.058,6.464,6.464,0,0,1-.152-1.246,1.384,1.384,0,0,1,.378-1.123,1.407,1.407,0,0,1,.847-.393,4.216,4.216,0,0,1,.638-.029,2.941,2.941,0,0,1,1.781.761,12.431,12.431,0,0,1,1.87,1.757,19.375,19.375,0,0,1,3.458,5.619c.629,1.228,2.084,1.715,2.049.249V367.892a2.523,2.523,0,0,1,2.633-2.631Z" transform="translate(-380.28 -363.269)" fill="#fff"/>
            </g>
          </g>
        </g>
      </g>
    </g>
  </g>
</svg>
