<svg xmlns="http://www.w3.org/2000/svg" xmlns:xlink="http://www.w3.org/1999/xlink" width="84" height="67.31" viewBox="0 0 84 67.31">
  <defs>
    <filter id="Pfad_45" x="0" y="0" width="51.188" height="67.31" filterUnits="userSpaceOnUse">
      <feOffset dy="3" input="SourceAlpha"/>
      <feGaussianBlur stdDeviation="3" result="blur"/>
      <feFlood flood-color="#fff" flood-opacity="0.651"/>
      <feComposite operator="in" in2="blur"/>
      <feComposite in="SourceGraphic"/>
    </filter>
    <filter id="Pfad_46" x="41.532" y="9.639" width="27.64" height="47.972" filterUnits="userSpaceOnUse">
      <feOffset dy="3" input="SourceAlpha"/>
      <feGaussianBlur stdDeviation="3" result="blur-2"/>
      <feFlood flood-color="#fff" flood-opacity="0.161"/>
      <feComposite operator="in" in2="blur-2"/>
      <feComposite in="SourceGraphic"/>
    </filter>
    <filter id="Pfad_47" x="51.439" y="0.069" width="32.561" height="67.173" filterUnits="userSpaceOnUse">
      <feOffset dy="3" input="SourceAlpha"/>
      <feGaussianBlur stdDeviation="3" result="blur-3"/>
      <feFlood flood-color="#fff" flood-opacity="0.161"/>
      <feComposite operator="in" in2="blur-3"/>
      <feComposite in="SourceGraphic"/>
    </filter>
  </defs>
  <g id="Ebene_2" data-name="Ebene 2" transform="translate(9 6)">
    <g id="Ebene_4" data-name="Ebene 4">
      <g transform="matrix(1, 0, 0, 1, -9, -6)" filter="url(#Pfad_45)">
        <path id="Pfad_45-2" data-name="Pfad 45" d="M33.187,49.31,12.8,34.137H0V14.561H13.5L33.065,0Z" transform="translate(9 6)" fill="#d69834"/>
      </g>
      <g transform="matrix(1, 0, 0, 1, -9, -6)" filter="url(#Pfad_46)">
        <path id="Pfad_46-2" data-name="Pfad 46" d="M57.121,42.562,54.25,40.028c7.8-8.819,7.816-16.7.054-24.789l2.817-2.649C66.139,22.014,66.155,32.38,57.121,42.562Z" transform="translate(-3.72 3.05)" fill="#d69834"/>
      </g>
      <g transform="matrix(1, 0, 0, 1, -9, -6)" filter="url(#Pfad_47)">
        <path id="Pfad_47-2" data-name="Pfad 47" d="M69.946,49.263,67.19,46.606c14.24-14.753,14.24-29.092,0-43.859L69.946.09C85.686,16.4,85.686,32.941,69.946,49.263Z" transform="translate(-6.75 5.98)" fill="#d69834"/>
      </g>
    </g>
  </g>
</svg>
