<svg 
    xmlns="http://www.w3.org/2000/svg" 
    xmlns:xlink="http://www.w3.org/1999/xlink" 
    width="124.382" 
    height="124.382" 
    viewBox="0 0 124.382 124.382"
    preserveAspectRatio="xMinYMin"
>
  <defs>
    <filter id="Ellipse_5" x="0" y="0" width="124.382" height="124.382" filterUnits="userSpaceOnUse">
      <feOffset dy="3" input="SourceAlpha"/>
      <feGaussianBlur stdDeviation="3" result="blur"/>
      <feFlood flood-opacity="0.651"/>
      <feComposite operator="in" in2="blur"/>
      <feComposite in="SourceGraphic"/>
    </filter>
  </defs>
  <g id="Gruppe_192" data-name="Gruppe 192" transform="translate(-1442.809 -2528.382)">
    <g id="Ebene_2" data-name="Ebene 2" transform="translate(1451.809 2562.77) rotate(-20)">
      <g id="Ebene_6" data-name="Ebene 6" transform="translate(0 0)">
        <g transform="matrix(0.94, 0.34, -0.34, 0.94, 3.3, -35.39)" filter="url(#Ellipse_5)">
          <circle id="Ellipse_5-2" data-name="Ellipse 5" cx="41.5" cy="41.5" r="41.5" transform="translate(9 34.39) rotate(-20)" fill="#d69834"/>
        </g>
      </g>
    </g>
    <g id="Ebene_2-2" data-name="Ebene 2" transform="translate(1474.459 2555.981)">
      <g id="Ebene_6-2" data-name="Ebene 6" transform="translate(0)">
        <path id="Pfad_180" data-name="Pfad 180" d="M61.082,22.085v.191c-.067.04-.138.073-.2.117q-9.192,6.673-18.387,13.345a.291.291,0,0,0-.117.407q3.532,10.837,7.056,21.677c.021.066.038.134.077.274a2.815,2.815,0,0,1-.351-.179q-4.228-3.064-8.453-6.131-4.967-3.6-9.935-7.209a.3.3,0,0,0-.426-.007q-9.125,6.637-18.27,13.262c-.127.093-.265.169-.4.253l-.057-.062c.13-.4.259-.808.39-1.211q3.362-10.342,6.731-20.68a.284.284,0,0,0-.117-.388Q9.418,29.071.218,22.379A1.9,1.9,0,0,1,0,22.158l.042-.067h.3q11.328,0,22.654.007a.354.354,0,0,0,.408-.3Q26.894,11.035,30.392.276c.029-.09.045-.184.067-.276h.191a2.542,2.542,0,0,0,.059.252q3.507,10.786,7.011,21.572a.328.328,0,0,0,.374.279q11.372-.012,22.751-.007C60.924,22.09,61,22.086,61.082,22.085Z" transform="translate(0)" fill="none" stroke="#fff" stroke-linecap="round" stroke-linejoin="round" stroke-width="3"/>
      </g>
    </g>
  </g>
</svg>
