<svg xmlns="http://www.w3.org/2000/svg" width="64.082" height="61.096" viewBox="0 0 64.082 61.096">
  <g id="Ebene_2" data-name="Ebene 2" transform="translate(1.5 1.5)">
    <g id="Ebene_6" data-name="Ebene 6" transform="translate(0)">
      <path id="Pfad_180" data-name="Pfad 180" d="M61.082,22.085v.191c-.067.04-.138.073-.2.117q-9.192,6.673-18.387,13.345a.291.291,0,0,0-.117.407q3.532,10.837,7.056,21.677c.021.066.038.134.077.274a2.815,2.815,0,0,1-.351-.179q-4.228-3.064-8.453-6.131-4.967-3.6-9.935-7.209a.3.3,0,0,0-.426-.007q-9.125,6.637-18.27,13.262c-.127.093-.265.169-.4.253l-.057-.062c.13-.4.259-.808.39-1.211q3.362-10.342,6.731-20.68a.284.284,0,0,0-.117-.388Q9.418,29.071.218,22.379A1.9,1.9,0,0,1,0,22.158l.042-.067h.3q11.328,0,22.654.007a.354.354,0,0,0,.408-.3Q26.894,11.035,30.392.276c.029-.09.045-.184.067-.276h.191a2.542,2.542,0,0,0,.059.252q3.507,10.786,7.011,21.572a.328.328,0,0,0,.374.279q11.372-.012,22.751-.007C60.924,22.09,61,22.086,61.082,22.085Z" transform="translate(0)" fill="none" stroke="#fff" stroke-linecap="round" stroke-linejoin="round" stroke-width="3"/>
    </g>
  </g>
</svg>
