<?xml version="1.0" encoding="utf-8"?>
<!-- Svg Vector Icons : http://www.onlinewebfonts.com/icon -->
<!DOCTYPE svg PUBLIC "-//W3C//DTD SVG 1.1//EN" "http://www.w3.org/Graphics/SVG/1.1/DTD/svg11.dtd">
<svg version="1.1" xmlns="http://www.w3.org/2000/svg" xmlns:xlink="http://www.w3.org/1999/xlink" x="0px" y="0px" viewBox="0 0 1000 1000" enable-background="new 0 0 1000 1000" xml:space="preserve">
<metadata> Svg Vector Icons : http://www.onlinewebfonts.com/icon </metadata>
<g><g transform="translate(0.000000,512.000000) scale(0.100000,-0.100000)"><path d="M4588.5,4999.1c-841.3-130.3-1406.6-596-1594.4-1310.8c-40.2-153.3-47.9-228-47.9-452.2c-1.9-402.4,65.2-661.1,233.8-919.8c86.2-132.2,325.8-371.8,465.7-467.6c49.8-32.6,90.1-63.2,90.1-67.1c0-1.9-69-59.4-155.2-124.6c-456.1-354.5-693.7-935.2-632.4-1540.7c26.8-262.5,63.2-392.8,162.9-597.9c147.6-300.9,402.4-534.6,860.4-795.3c113.1-63.2,534.7-279.8,937.1-479.1c404.3-199.3,812.5-413.9,908.3-477.2c304.7-201.2,404.3-358.3,423.5-672.6c32.6-507.8-220.4-847-741.6-996.5c-220.4-63.2-638.1-74.7-891.1-21.1c-241.5,49.8-469.5,159.1-603.6,289.4c-153.3,149.5-249.1,392.9-249.1,630.5c0,111.1-76.7,272.1-157.1,329.6c-99.6,70.9-220.4,97.7-339.2,72.8c-143.7-28.8-275.9-159.1-306.6-300.9c-23-113.1-1.9-383.3,46-563.4c107.3-413.9,379.4-772.3,756.9-1000.3c709-429.2,1858.8-417.8,2535.3,26.8c396.7,258.7,632.4,601.7,735.9,1061.7c40.2,184,40.2,605.5-1.9,795.3c-84.3,381.3-285.5,686-611.3,921.7c-80.5,57.5-145.7,111.2-147.6,116.9c0,5.7,55.6,49.8,124.6,101.6c481,352.6,726.3,937.1,661.1,1577.1c-63.2,622.8-350.7,1000.3-1067.4,1400.8c-97.7,55.6-490.6,254.9-871.9,442.7c-785.7,387.1-948.6,481-1111.5,630.5c-174.4,162.9-245.3,339.2-245.3,613.2c1.9,592.1,413.9,944.7,1144,975.4c413.9,17.2,741.6-61.3,969.6-231.9c222.3-166.7,325.8-369.9,350.7-688c13.4-170.6,49.8-262.5,136.1-343c170.5-162.9,427.3-143.7,586.4,42.2c86.2,101.6,97.7,162.9,84.3,410.1c-47.9,812.5-622.8,1418.1-1512,1592.5C5295.7,5024.1,4807,5033.6,4588.5,4999.1z M5140.4,1049.6c688-343,891.1-479.1,1004.2-672.6c136.1-233.8,134.1-651.5-7.7-910.2c-115-210.8-369.8-383.3-684.1-459.9l-157.1-38.3l-498.2,249.1c-555.7,281.7-701.4,369.9-845.1,515.5c-124.6,126.5-178.2,262.5-191.6,484.8c-26.8,419.7,145.6,735.9,494.4,908.3c118.8,59.4,354.5,139.9,425.4,143.7C4688.2,1271.9,4895.2,1172.2,5140.4,1049.6z" fill="#257DA7"/></g></g>
</svg>